<svg width="605" height="386" viewBox="0 0 605 386" fill="none" xmlns="http://www.w3.org/2000/svg">
<path opacity="0.2" d="M86.6348 383.863C86.6348 383.863 37.3178 353.175 46.2712 233.268C53.0227 142.849 121.431 21.9333 262.316 1.69232C356.835 -11.8871 352.383 60.2004 456.17 77.2662C588.434 99.0142 654.697 253.967 560.345 381.845L86.6348 383.863Z" fill="#018752"/>
<path d="M407.756 254.579C407.756 254.579 449.278 259.827 474.263 213.387C474.263 213.387 411.872 208.606 407.756 254.579Z" fill="#FDD118"/>
<path d="M420.735 213.469C420.944 213.569 421.09 213.781 421.09 214.029C421.09 214.373 420.811 214.652 420.466 214.652H419.889C418.044 217.366 416.634 220.407 415.991 223.765H420.466C420.811 223.765 421.09 224.044 421.09 224.388C421.09 224.732 420.811 225.011 420.466 225.011H415.791C415.328 228.539 415.716 232.401 417.319 236.59C417.319 236.59 440.324 228.76 441.509 198.171C441.509 198.171 428.285 203.412 420.735 213.469Z" fill="#DAB105"/>
<path d="M297.365 192.321C297.365 192.321 281.61 183.143 285.298 160.466C285.298 160.466 308.146 175.331 297.365 192.321Z" fill="#DAB105"/>
<path d="M301.718 206.975C301.718 206.975 270.394 204.663 258.938 166.79C258.938 166.79 305.543 172.547 301.718 206.975Z" fill="#FDD118"/>
<path d="M183.338 384.211C182.216 383.314 162.574 348.705 150.461 365.506C150.461 365.506 132.291 303.901 107.392 306.814C82.4924 309.726 103.578 355.425 103.578 355.425C103.578 355.425 82.2681 346.689 87.2032 369.762C87.2032 369.762 60.0604 364.834 62.0792 384.323L183.338 384.211Z" fill="#FDD118"/>
<path d="M82.264 336.784C84.4101 335.007 83.4579 330.324 80.1371 326.323C76.8164 322.323 72.3846 320.52 70.2384 322.296C68.0923 324.073 69.0446 328.756 72.3653 332.757C75.6861 336.758 80.1179 338.561 82.264 336.784Z" fill="#FDD118"/>
<path d="M75.0573 342.072C77.0231 344.44 77.5866 347.212 76.3162 348.264C75.0457 349.316 72.4224 348.248 70.4566 345.88C68.4908 343.512 67.9273 340.739 69.1977 339.688C70.4682 338.636 73.0915 339.703 75.0573 342.072Z" fill="#FDD118"/>
<path d="M104.564 359.93C104.628 359.916 104.687 359.879 104.726 359.82C104.806 359.701 104.774 359.539 104.654 359.46C104.436 359.314 99.2712 355.913 94.7379 356.895C94.7369 356.895 94.7364 356.895 94.7352 356.896C94.5945 356.926 94.5055 357.065 94.536 357.205C94.5666 357.345 94.7053 357.434 94.846 357.404C94.8465 357.404 94.8474 357.404 94.8484 357.404C99.1639 356.468 104.313 359.858 104.364 359.892C104.425 359.933 104.498 359.945 104.564 359.93Z" fill="black"/>
<path d="M101.093 360.319C101.157 360.305 101.216 360.267 101.255 360.208C101.334 360.089 101.301 359.927 101.181 359.848C101.082 359.782 98.6964 358.24 94.4606 358.503C94.316 358.513 94.2079 358.636 94.2168 358.779C94.2257 358.922 94.3496 359.032 94.4929 359.023C98.556 358.77 100.871 360.267 100.894 360.282C100.955 360.322 101.026 360.334 101.093 360.319Z" fill="black"/>
<path d="M165.779 370.381C165.845 370.381 165.91 370.357 165.961 370.308C166.064 370.208 166.067 370.043 165.967 369.94C165.785 369.752 161.46 365.334 156.821 365.334C156.671 365.337 156.558 365.45 156.558 365.595C156.558 365.738 156.674 365.855 156.818 365.855C156.818 365.855 156.82 365.855 156.821 365.855C161.241 365.855 165.549 370.257 165.592 370.301C165.643 370.354 165.711 370.381 165.779 370.381Z" fill="black"/>
<path d="M162.304 370.025C162.37 370.025 162.436 370.001 162.487 369.952C162.589 369.851 162.592 369.687 162.491 369.584C162.408 369.499 160.404 367.487 156.209 366.847C156.065 366.825 155.934 366.922 155.912 367.065C155.89 367.207 155.988 367.339 156.13 367.361C160.141 367.973 162.099 369.928 162.118 369.947C162.169 369.999 162.237 370.025 162.304 370.025Z" fill="black"/>
<path d="M449.617 383.989C450.742 383.097 470.511 348.559 482.562 365.404C482.562 365.404 500.957 303.867 525.846 306.87C550.735 309.873 529.481 355.495 529.481 355.495C529.481 355.495 550.824 346.836 545.804 369.891C545.804 369.891 572.965 365.062 570.875 384.544L449.617 383.989Z" fill="#FDD118"/>
<path d="M560.821 332.932C564.157 328.943 565.126 324.263 562.986 322.479C560.846 320.695 556.408 322.482 553.073 326.47C549.737 330.459 548.768 335.139 550.908 336.923C553.047 338.708 557.486 336.921 560.821 332.932Z" fill="#FDD118"/>
<path d="M562.67 346.06C564.644 343.698 565.218 340.928 563.951 339.872C562.685 338.815 560.057 339.873 558.083 342.234C556.108 344.596 555.535 347.366 556.801 348.422C558.068 349.479 560.695 348.421 562.67 346.06Z" fill="#FDD118"/>
<path d="M528.479 359.996C528.416 359.982 528.357 359.945 528.318 359.886C528.239 359.766 528.272 359.605 528.391 359.525C528.609 359.381 533.787 355.998 538.317 356.997C538.318 356.997 538.318 356.997 538.319 356.998C538.46 357.029 538.548 357.168 538.518 357.308C538.487 357.448 538.347 357.537 538.207 357.506C538.206 357.505 538.205 357.505 538.204 357.505C533.892 356.555 528.731 359.925 528.68 359.959C528.618 360 528.546 360.011 528.479 359.996Z" fill="black"/>
<path d="M531.949 360.398C531.885 360.384 531.826 360.345 531.787 360.286C531.708 360.166 531.742 360.005 531.862 359.926C531.962 359.861 534.353 358.327 538.588 358.606C538.732 358.616 538.84 358.739 538.83 358.883C538.821 359.026 538.697 359.135 538.553 359.125C534.491 358.858 532.171 360.346 532.148 360.361C532.087 360.401 532.015 360.412 531.949 360.398Z" fill="black"/>
<path d="M467.227 370.223C467.162 370.223 467.096 370.198 467.046 370.149C466.943 370.049 466.941 369.885 467.041 369.782C467.223 369.594 471.565 365.192 476.203 365.209C476.353 365.213 476.466 365.326 476.466 365.47C476.465 365.614 476.348 365.73 476.204 365.73C476.204 365.73 476.202 365.73 476.201 365.73C471.782 365.714 467.457 370.1 467.414 370.144C467.363 370.197 467.295 370.223 467.227 370.223Z" fill="black"/>
<path d="M470.702 369.881C470.637 369.88 470.571 369.855 470.521 369.806C470.418 369.705 470.417 369.541 470.517 369.438C470.601 369.353 472.612 367.349 476.81 366.724C476.954 366.703 477.085 366.801 477.106 366.943C477.127 367.085 477.029 367.218 476.887 367.239C472.874 367.836 470.909 369.783 470.889 369.803C470.838 369.855 470.77 369.881 470.702 369.881Z" fill="black"/>
<path d="M509.483 251.414C519.735 250.874 554.87 249.394 578.896 252.951C582.013 253.413 583.998 249.683 581.842 247.388C580.581 246.046 578.43 244.954 574.812 244.701C574.812 244.701 576.058 222.301 559.115 220.818C539.684 219.116 539.448 241.122 539.448 241.122C539.448 241.122 530.617 232.749 524.247 243.365C524.247 243.365 513.238 237.011 507.685 248.747C507.08 250.027 508.067 251.489 509.483 251.414Z" fill="#FDD118"/>
<path d="M500.092 169.284C491.061 168.768 469.889 167.866 451.484 169.416C443.869 170.057 437.295 163.983 437.466 156.354C437.536 153.231 438.657 149.598 441.56 145.482C452.735 129.632 472.159 144.769 471.973 152.814C471.973 152.814 475.9 140.7 487.827 142.821C499.755 144.941 495.537 162.56 495.537 162.56C495.537 162.56 499.386 161.748 502.054 163.567C504.678 165.355 503.263 169.466 500.092 169.284Z" fill="#FDD118"/>
<path d="M448.276 315.232C448.276 315.232 434.122 350.797 445.993 377.698L173.874 379.978L148.762 377.698L126.629 364.003V343.046L132.782 325.719L152.871 315.232L448.276 315.232Z" fill="white"/>
<path d="M161.127 383.441H455.125C457.04 383.441 458.592 381.891 458.592 379.978C458.592 378.066 457.04 376.516 455.125 376.516H161.127C143.381 376.516 128.943 363.137 128.943 346.693C128.943 330.249 143.381 316.871 161.127 316.871H455.125C457.04 316.871 458.592 315.321 458.592 313.408C458.592 311.496 457.04 309.946 455.125 309.946H161.127C139.558 309.946 122.009 326.431 122.009 346.693C122.009 366.956 139.558 383.441 161.127 383.441Z" fill="#018752"/>
<path d="M128.064 355.381L131.762 352.796L132.19 358.009L128.064 355.381Z" fill="#018752"/>
<path d="M444.282 347.463H300.003C299.577 347.463 299.232 347.118 299.232 346.693C299.232 346.268 299.577 345.924 300.003 345.924H444.282C444.708 345.924 445.052 346.268 445.052 346.693C445.052 347.118 444.708 347.463 444.282 347.463Z" fill="#AAC9F8"/>
<path d="M279.685 347.463H139.516C139.091 347.463 138.746 347.118 138.746 346.693C138.746 346.268 139.091 345.924 139.516 345.924H279.685C280.111 345.924 280.456 346.268 280.456 346.693C280.456 347.118 280.111 347.463 279.685 347.463Z" fill="#AAC9F8"/>
<path d="M215.201 361.248H143.283C142.857 361.248 142.513 360.904 142.513 360.478C142.513 360.053 142.857 359.709 143.283 359.709H215.201C215.627 359.709 215.972 360.053 215.972 360.478C215.972 360.904 215.627 361.248 215.201 361.248Z" fill="#AAC9F8"/>
<path d="M444.281 361.248H225.752C225.326 361.248 224.981 360.904 224.981 360.478C224.981 360.053 225.326 359.709 225.752 359.709H444.281C444.707 359.709 445.052 360.053 445.052 360.478C445.052 360.904 444.707 361.248 444.281 361.248Z" fill="#AAC9F8"/>
<path d="M455.125 384.21H161.127C139.133 384.21 121.239 367.38 121.239 346.693C121.239 326.007 139.133 309.177 161.127 309.177H455.125C457.462 309.177 459.363 311.075 459.363 313.409C459.363 315.742 457.462 317.641 455.125 317.641C454.699 317.641 454.355 317.296 454.355 316.871C454.355 316.446 454.699 316.102 455.125 316.102C456.612 316.102 457.822 314.894 457.822 313.409C457.822 311.924 456.612 310.716 455.125 310.716H161.127C139.982 310.716 122.78 326.855 122.78 346.693C122.78 366.532 139.982 382.672 161.127 382.672H455.125C456.612 382.672 457.822 381.464 457.822 379.979C457.822 378.494 456.612 377.286 455.125 377.286C454.699 377.286 454.355 376.942 454.355 376.516C454.355 376.091 454.699 375.747 455.125 375.747C457.462 375.747 459.363 377.645 459.363 379.978C459.363 382.312 457.462 384.21 455.125 384.21Z" fill="#21111D"/>
<path d="M278.319 333.67C278.319 333.67 287.579 356.706 282.241 373.664L274.718 362.054C274.718 362.054 269.582 368.209 266.432 373.664C266.432 373.664 260.686 335.79 249.549 333.67H278.319Z" fill="#FDD118"/>
<path d="M444.281 333.67H143.283C142.857 333.67 142.513 333.326 142.513 332.901C142.513 332.475 142.857 332.131 143.283 332.131H444.282C444.708 332.131 445.052 332.475 445.052 332.901C445.052 333.326 444.707 333.67 444.281 333.67Z" fill="#AAC9F8"/>
<path d="M129.726 188.19C129.726 160.997 107.651 138.952 80.4211 138.952C53.1907 138.952 31.1162 160.997 31.1162 188.19C31.1162 201.678 36.5492 213.898 45.3464 222.791L45.3447 222.791C45.3447 222.791 60.2657 238.727 65.3046 256.095C65.3046 256.095 73.9195 259.017 80.4211 259.18C86.9229 259.017 95.5378 256.095 95.5378 256.095C100.577 238.727 115.498 222.791 115.498 222.791L115.496 222.791C124.293 213.898 129.726 201.679 129.726 188.19Z" fill="#FECC86"/>
<path d="M63.9731 252.17V264.914C63.9731 270.917 67.612 276.069 72.8064 278.295C73.2624 282.087 76.4892 285.028 80.4094 285.028C84.3294 285.028 87.5565 282.087 88.0124 278.295C93.2068 276.069 96.8457 270.917 96.8457 264.914V252.17H63.9731Z" fill="#FDD118"/>
<g opacity="0.3">
<path d="M129.726 188.19C129.726 178.116 126.696 168.748 121.497 160.947C107.076 196.43 84.0774 220.296 50.9492 229.552C55.1216 235.017 60.6517 243.247 63.996 252.17H96.8459V252.172C102.757 236.4 115.498 222.791 115.498 222.791L115.496 222.791C124.293 213.898 129.726 201.679 129.726 188.19Z" fill="#FECC86"/>
</g>
<path d="M88.4773 252.362L87.066 251.977C87.1121 251.809 91.7103 234.925 94.8994 217.632C100.433 187.626 97.2509 181.262 94.8617 180.14C92.4192 178.992 90.4984 179.197 89.1519 180.751C89.054 180.865 88.9597 180.984 88.8696 181.108C92.3158 183.138 93.1501 186.256 93.3482 187.518C93.895 191.002 92.3346 194.479 89.8702 195.27C89.2733 195.462 88.1252 195.558 87.1326 194.059C85.5557 191.679 85.0632 185.726 86.8286 181.757C85.1335 181.065 83.0693 180.696 80.7063 180.696H79.2831C76.9206 180.696 74.8558 181.065 73.1608 181.757C74.9262 185.726 74.4337 191.679 72.8573 194.059C71.8646 195.558 70.7168 195.462 70.1194 195.27C67.655 194.479 66.0946 191.002 66.6414 187.518C66.8395 186.256 67.6743 183.138 71.12 181.108C71.0299 180.984 70.9362 180.865 70.8379 180.752C69.4922 179.198 67.5704 178.992 65.1282 180.14C62.7392 181.263 59.5573 187.627 65.0907 217.632C68.2798 234.925 72.878 251.809 72.9241 251.977L71.5128 252.362C71.4666 252.193 66.8541 235.258 63.6536 217.905C59.2353 193.949 59.5139 181.164 64.5054 178.818C68.3785 176.999 70.6884 178.346 71.9446 179.796C72.121 180 72.2861 180.216 72.4408 180.445C74.1655 179.712 76.3962 179.235 79.2833 179.235H80.7065C83.5939 179.235 85.8249 179.713 87.5496 180.445C87.7038 180.216 87.8694 180 88.0458 179.796C89.3014 178.345 91.6119 176.998 95.4845 178.818C100.476 181.164 100.755 193.949 96.3367 217.905C93.136 235.258 88.5235 252.193 88.4773 252.362ZM71.8469 182.401C69.7676 183.613 68.4493 185.436 68.0868 187.744C67.6096 190.785 68.984 193.371 70.5673 193.88C70.7143 193.927 71.1069 194.054 71.6369 193.254C72.987 191.215 73.3433 185.831 71.8469 182.401ZM88.143 182.401C86.6463 185.831 87.0026 191.215 88.3527 193.253C88.8832 194.054 89.2748 193.927 89.4223 193.879C91.0057 193.371 92.3802 190.785 91.9028 187.744C91.5406 185.436 90.2223 183.614 88.143 182.401Z" fill="#F99247"/>
<path d="M63.7343 252.514C63.3415 251.391 63.1643 250.98 62.7757 250.08L62.5643 249.588C56.4081 235.232 45.1899 223.161 45.0774 223.041L45.0421 223.003C35.8254 213.664 30.7507 201.303 30.7507 188.19C30.7507 160.839 53.0328 138.587 80.4213 138.587C97.2368 138.587 112.782 146.985 122.006 161.053L121.394 161.453C112.306 147.592 96.9891 139.317 80.4213 139.317C53.4364 139.317 31.4821 161.242 31.4821 188.19C31.4821 201.13 36.4983 213.327 45.6064 222.534L46.0831 223.016L46.0488 223.023C48.1959 225.42 57.7262 236.45 63.2364 249.3L63.4473 249.791C63.8426 250.707 64.023 251.126 64.4249 252.273L63.7343 252.514Z" fill="#21111D"/>
<path d="M45.9876 165.459L45.2854 165.255C45.3207 165.133 48.9663 153.014 61.2314 148.457L61.4863 149.142C49.5747 153.567 46.0224 165.34 45.9876 165.459Z" fill="#21111D"/>
<path d="M48.2486 169.84L47.5464 169.637C47.5817 169.515 51.2267 157.396 63.4924 152.839L63.7475 153.523C51.8352 157.949 48.2831 169.722 48.2486 169.84Z" fill="#21111D"/>
<path d="M82.2017 279.836H78.618C70.3414 279.836 63.6077 273.111 63.6077 264.845V251.804H96.8459V252.535H64.339V264.845C64.339 272.708 70.7446 279.105 78.618 279.105H82.2017C85.9713 279.105 89.5271 277.651 92.2143 275.011L92.7271 275.532C89.9026 278.307 86.1645 279.836 82.2017 279.836Z" fill="#21111D"/>
<path d="M80.6228 285.396C73.4987 285.396 72.4701 278.495 72.4602 278.424L73.1849 278.325C73.2221 278.589 74.1728 284.817 80.8604 284.663L80.8767 285.393C80.7913 285.395 80.7062 285.396 80.6228 285.396Z" fill="#21111D"/>
<path d="M114.231 215.754L113.795 215.167C120.303 210.346 121.327 202.296 121.337 202.215L122.063 202.301C122.053 202.385 120.998 210.74 114.231 215.754Z" fill="#21111D"/>
<path d="M112.791 212.246L112.355 211.659C117.098 208.145 117.847 202.274 117.854 202.215L118.58 202.301C118.551 202.554 117.793 208.539 112.791 212.246Z" fill="#21111D"/>
<path d="M62.4637 258.733L62.4551 258.003C62.7341 258 90.4508 257.641 99.2288 254.374L99.4844 255.058C90.5873 258.37 63.6078 258.72 62.4637 258.733Z" fill="#21111D"/>
<path d="M62.4665 264.902L62.4529 264.171C62.7561 264.166 92.8346 263.57 98.4573 260.562L98.803 261.206C93.0258 264.297 63.7115 264.878 62.4665 264.902Z" fill="#21111D"/>
<path d="M63.9761 271.232L63.9697 270.502C64.2416 270.499 91.2327 270.216 98.4624 266.485L98.7982 267.134C91.4143 270.944 65.0929 271.222 63.9761 271.232Z" fill="#21111D"/>
<path d="M18.5462 180.44C18.5151 180.44 18.4838 180.438 18.4522 180.436L1.00432 178.953C0.400305 178.902 -0.0475262 178.371 0.00404229 177.768C0.0551173 177.165 0.586591 176.72 1.19011 176.769L18.638 178.252C19.242 178.303 19.6899 178.834 19.6383 179.437C19.5899 180.008 19.1103 180.44 18.5462 180.44Z" fill="#FECC86"/>
<path d="M27.5708 152.68C27.3576 152.68 27.142 152.618 26.9522 152.489L12.5005 142.614C12.0006 142.272 11.8725 141.59 12.2148 141.09C12.5565 140.591 13.239 140.463 13.7399 140.805L28.1916 150.68C28.6915 151.022 28.8196 151.704 28.4773 152.203C28.2649 152.513 27.9209 152.68 27.5708 152.68Z" fill="#FECC86"/>
<path d="M53.6909 132.768C53.2577 132.768 52.8473 132.51 52.6741 132.084L46.0832 115.883C45.855 115.322 46.1254 114.683 46.6868 114.455C47.2471 114.227 47.8879 114.497 48.1161 115.058L54.707 131.259C54.9352 131.82 54.6648 132.459 54.1035 132.687C53.9685 132.742 53.8284 132.768 53.6909 132.768Z" fill="#FECC86"/>
<path d="M141.418 183.597C140.846 183.597 140.363 183.152 140.325 182.573C140.285 181.969 140.743 181.447 141.347 181.408L158.821 180.255C159.42 180.216 159.948 180.672 159.988 181.276C160.028 181.88 159.57 182.402 158.965 182.441L141.492 183.594C141.467 183.596 141.443 183.597 141.418 183.597Z" fill="#FECC86"/>
<path d="M132.922 155.672C132.565 155.672 132.214 155.498 132.004 155.177C131.671 154.672 131.812 153.992 132.319 153.66L146.956 144.06C147.462 143.728 148.143 143.869 148.475 144.374C148.808 144.88 148.667 145.559 148.16 145.891L133.523 155.491C133.338 155.613 133.128 155.672 132.922 155.672Z" fill="#FECC86"/>
<path d="M110.565 132.704C110.42 132.704 110.274 132.675 110.133 132.615C109.576 132.377 109.318 131.733 109.556 131.176L116.453 115.102C116.692 114.546 117.338 114.29 117.894 114.527C118.451 114.765 118.709 115.409 118.47 115.966L111.574 132.04C111.395 132.455 110.99 132.704 110.565 132.704Z" fill="#FECC86"/>
<path d="M82.4377 124.194C82.432 124.194 82.4264 124.194 82.4204 124.194C81.8144 124.185 81.3308 123.687 81.34 123.082L81.6096 105.596C81.619 104.997 82.1086 104.517 82.7064 104.517C82.7121 104.517 82.7178 104.517 82.7234 104.518C83.3294 104.527 83.813 105.025 83.8039 105.63L83.5342 123.116C83.5253 123.715 83.0356 124.194 82.4377 124.194Z" fill="#FECC86"/>
<g opacity="0.5">
<path d="M113.522 164.448C115.248 161.773 112.1 156.678 106.492 153.069C100.883 149.459 94.9371 148.702 93.2109 151.377C91.4848 154.052 94.6322 159.146 100.241 162.756C105.849 166.365 111.795 167.123 113.522 164.448Z" fill="#F3FFFE"/>
</g>
<path d="M185.188 246.614C185.188 246.614 198.324 279.621 187.306 304.588L439.854 306.704L463.159 304.588L483.7 291.878V272.427L477.99 256.347L459.346 246.614L185.188 246.614Z" fill="white"/>
<g opacity="0.3">
<path d="M326.982 303.49L448.65 305.905L463.159 304.588L483.7 291.878V272.427L477.99 256.347L459.345 246.614H324.933C326.207 247.56 326.982 248.135 326.982 248.135C326.982 248.135 339.605 277.779 326.982 303.49Z" fill="#FDD118"/>
</g>
<path d="M451.683 309.917H178.831C177.054 309.917 175.614 308.478 175.614 306.704C175.614 304.929 177.054 303.49 178.831 303.49H451.683C468.154 303.49 481.552 291.074 481.552 275.812C481.552 260.551 468.154 248.135 451.683 248.135H178.831C177.054 248.135 175.614 246.696 175.614 244.922C175.614 243.147 177.054 241.708 178.831 241.708H451.683C471.701 241.708 487.988 257.008 487.988 275.812C487.988 294.618 471.701 309.917 451.683 309.917Z" fill="#018752"/>
<path d="M322.796 276.582H188.896C188.47 276.582 188.125 276.238 188.125 275.813C188.125 275.387 188.47 275.043 188.896 275.043H322.796C323.222 275.043 323.567 275.387 323.567 275.813C323.566 276.238 323.222 276.582 322.796 276.582Z" fill="#AAC9F8"/>
<path d="M471.739 276.582H341.653C341.227 276.582 340.882 276.238 340.882 275.813C340.882 275.387 341.227 275.043 341.653 275.043H471.739C472.165 275.043 472.51 275.387 472.51 275.813C472.51 276.238 472.165 276.582 471.739 276.582Z" fill="#AAC9F8"/>
<path d="M468.244 289.376H401.499C401.073 289.376 400.728 289.031 400.728 288.606C400.728 288.181 401.073 287.837 401.499 287.837H468.244C468.67 287.837 469.014 288.181 469.014 288.606C469.014 289.031 468.67 289.376 468.244 289.376Z" fill="#AAC9F8"/>
<path d="M468.261 263.782H195.133C194.717 263.782 194.38 263.437 194.38 263.012C194.38 262.587 194.717 262.242 195.133 262.242H468.261C468.677 262.242 469.014 262.587 469.014 263.012C469.014 263.438 468.677 263.782 468.261 263.782Z" fill="#AAC9F8"/>
<path d="M451.683 310.687H178.831C176.632 310.687 174.843 308.9 174.843 306.704C174.843 304.507 176.632 302.72 178.831 302.72C179.257 302.72 179.601 303.064 179.601 303.49C179.601 303.915 179.257 304.259 178.831 304.259C177.482 304.259 176.384 305.356 176.384 306.704C176.384 308.052 177.482 309.148 178.831 309.148H451.683C471.276 309.148 487.217 294.194 487.217 275.812C487.217 257.432 471.277 242.478 451.683 242.478H178.831C177.482 242.478 176.384 243.575 176.384 244.922C176.384 246.27 177.482 247.366 178.831 247.366C179.257 247.366 179.601 247.711 179.601 248.136C179.601 248.561 179.257 248.905 178.831 248.905C176.632 248.905 174.843 247.119 174.843 244.922C174.843 242.727 176.632 240.94 178.831 240.94H451.683C472.126 240.94 488.758 256.584 488.758 275.813C488.758 295.042 472.126 310.687 451.683 310.687Z" fill="#21111D"/>
<path d="M391.707 289.376H188.896C188.47 289.376 188.125 289.031 188.125 288.606C188.125 288.181 188.47 287.837 188.896 287.837H391.707C392.133 287.837 392.477 288.181 392.477 288.606C392.477 289.031 392.133 289.376 391.707 289.376Z" fill="#AAC9F8"/>
<g opacity="0.5">
<path d="M175.613 244.922C175.613 246.697 177.054 248.135 178.831 248.135H321.327C323.104 248.135 324.544 246.696 324.544 244.922C324.544 243.147 323.104 241.708 321.327 241.708H178.831C177.054 241.708 175.613 243.147 175.613 244.922Z" fill="#258D8C"/>
</g>
<path d="M324.545 306.704C324.545 304.929 323.104 303.49 321.327 303.49H178.831C177.054 303.49 175.614 304.929 175.614 306.704C175.614 308.478 177.054 309.917 178.831 309.917H321.327C323.104 309.917 324.545 308.478 324.545 306.704Z" fill="#018752"/>
<path d="M381.896 263.782C381.896 263.782 389.926 283.758 385.298 298.465L378.746 290.171C378.746 290.171 375.162 293.64 371.587 298.465C371.587 298.465 366.605 265.62 356.947 263.782H381.896Z" fill="#49263E"/>
<path d="M423.468 190.386C423.468 190.386 412.832 217.112 421.752 237.328L217.26 239.041L198.389 237.328L181.756 227.037V211.287L186.38 198.267L201.476 190.386H423.468Z" fill="white"/>
<g opacity="0.3">
<path d="M308.654 236.439L210.137 238.395L198.389 237.328L181.756 227.037V211.287L186.38 198.267L201.476 190.386H310.313C309.282 191.151 308.654 191.617 308.654 191.617C308.654 191.617 298.433 215.621 308.654 236.439Z" fill="#FDD118"/>
</g>
<path d="M207.681 241.644H428.615C430.054 241.644 431.22 240.479 431.22 239.041C431.22 237.604 430.054 236.439 428.615 236.439H207.681C194.345 236.439 183.495 226.386 183.495 214.028C183.495 201.671 194.344 191.617 207.681 191.617H428.615C430.054 191.617 431.22 190.452 431.22 189.015C431.22 187.578 430.054 186.413 428.615 186.413H207.681C191.472 186.413 178.284 198.801 178.284 214.028C178.284 229.256 191.472 241.644 207.681 241.644Z" fill="#018752"/>
<path d="M312.044 214.652H420.466C420.81 214.652 421.089 214.373 421.089 214.029C421.089 213.684 420.81 213.406 420.466 213.406H312.044C311.699 213.406 311.42 213.685 311.42 214.029C311.42 214.373 311.699 214.652 312.044 214.652Z" fill="#AAC9F8"/>
<path d="M201.309 214.652H296.833C297.146 214.652 297.399 214.373 297.399 214.029C297.399 213.684 297.146 213.406 296.833 213.406H201.309C200.996 213.406 200.743 213.685 200.743 214.029C200.743 214.373 200.996 214.652 201.309 214.652Z" fill="#AAC9F8"/>
<path d="M194.271 225.011H248.316C248.661 225.011 248.94 224.732 248.94 224.388C248.94 224.043 248.661 223.765 248.316 223.765H194.271C193.927 223.765 193.648 224.044 193.648 224.388C193.647 224.732 193.927 225.011 194.271 225.011Z" fill="#AAC9F8"/>
<path d="M194.271 204.287H420.466C420.811 204.287 421.09 204.008 421.09 203.663C421.09 203.319 420.811 203.04 420.466 203.04H194.271C193.927 203.04 193.648 203.319 193.648 203.663C193.647 204.008 193.927 204.287 194.271 204.287Z" fill="#AAC9F8"/>
<path d="M256.245 225.011H420.466C420.81 225.011 421.089 224.732 421.089 224.388C421.089 224.043 420.81 223.765 420.466 223.765H256.245C255.9 223.765 255.621 224.044 255.621 224.388C255.621 224.732 255.9 225.011 256.245 225.011Z" fill="#AAC9F8"/>
<g opacity="0.5">
<path d="M431.22 189.015C431.22 190.452 430.054 191.617 428.615 191.617H313.233C311.794 191.617 310.627 190.452 310.627 189.015C310.627 187.578 311.794 186.413 313.233 186.413H428.615C430.054 186.413 431.22 187.578 431.22 189.015Z" fill="#018752"/>
</g>
<path d="M310.628 239.042C310.628 237.604 311.794 236.439 313.233 236.439H428.615C430.054 236.439 431.221 237.604 431.221 239.042C431.221 240.479 430.054 241.644 428.615 241.644H313.233C311.794 241.644 310.628 240.479 310.628 239.042Z" fill="#018752"/>
<path d="M239.655 204.287C239.655 204.287 231.92 215.979 236.242 229.711L242.334 220.31C242.334 220.31 246.493 225.294 249.044 229.711C249.044 229.711 253.932 206.003 262.951 204.287H239.655Z" fill="#018752"/>
<path d="M207.681 242.267H428.615C430.395 242.267 431.844 240.82 431.844 239.041C431.844 237.263 430.395 235.816 428.615 235.816C428.27 235.816 427.991 236.095 427.991 236.439C427.991 236.783 428.27 237.062 428.615 237.062C429.707 237.062 430.596 237.95 430.596 239.041C430.596 240.133 429.707 241.02 428.615 241.02H207.681C191.816 241.02 178.908 228.911 178.908 214.028C178.908 199.145 191.815 187.036 207.681 187.036H428.615C429.707 187.036 430.596 187.924 430.596 189.015C430.596 190.106 429.707 190.994 428.615 190.994C428.27 190.994 427.991 191.273 427.991 191.617C427.991 191.961 428.27 192.24 428.615 192.24C430.395 192.24 431.844 190.793 431.844 189.015C431.844 187.237 430.395 185.79 428.615 185.79H207.681C191.128 185.79 177.66 198.457 177.66 214.027C177.66 229.599 191.127 242.267 207.681 242.267Z" fill="#018752"/>
<path d="M532.231 382.982L515.499 382.926C513.553 382.982 511.987 380.273 511.681 379.446L507.078 371.624L522.476 368.735L532.231 382.982Z" fill="#FE9F73"/>
<path d="M540.792 381.845H511.6V375.978C511.6 375.978 513.723 373.163 516.956 374.6C516.956 374.6 521.742 378.061 526.053 373.925L536.862 378.559C536.862 378.56 540.792 379.85 540.792 381.845Z" fill="#018752"/>
<path d="M511.6 383.591H541.623C541.864 383.591 542.06 383.395 542.06 383.155V382.28C542.06 382.04 541.864 381.845 541.623 381.845H511.6V383.591Z" fill="#FEC786"/>
<path d="M436.019 375.564C436.019 375.564 441.954 385.261 458.64 383.769C475.325 382.277 490.641 356.537 490.641 356.537L511.062 379.666C511.062 379.666 522.393 376.091 526.129 370.231C526.129 370.231 504.214 333.905 493.754 333.78C483.295 333.656 441.559 366.484 441.01 366.857C440.46 367.231 436.019 375.564 436.019 375.564Z" fill="#FEC786"/>
<path d="M458.64 334.65C459.055 334.485 478.314 335.065 478.314 335.065L477.65 343.107L467.439 344.599L458.64 334.65Z" fill="#018752"/>
<path d="M419.283 345.384C419.283 345.384 424.534 363.23 435.056 377.53C435.056 377.53 440.897 373.708 449.769 366.241C458.64 358.775 419.283 345.384 419.283 345.384Z" fill="#018752"/>
<path d="M455.267 380.914C455.49 380.914 455.725 380.905 455.976 380.887C456.092 380.879 456.179 380.778 456.17 380.663C456.162 380.547 456.059 380.459 455.945 380.469C453.201 380.668 452.334 379.635 452.326 379.625C452.253 379.534 452.121 379.52 452.031 379.593C451.94 379.665 451.926 379.797 451.999 379.888C452.035 379.933 452.855 380.914 455.267 380.914Z" fill="#21111D"/>
<path d="M455.585 379.405C456.088 379.405 456.684 379.345 457.383 379.189C457.496 379.164 457.568 379.052 457.542 378.939C457.518 378.826 457.406 378.755 457.291 378.78C454.632 379.373 453.596 378.482 453.586 378.472C453.5 378.395 453.367 378.402 453.29 378.487C453.212 378.572 453.217 378.703 453.302 378.781C453.338 378.814 453.999 379.405 455.585 379.405Z" fill="#21111D"/>
<path d="M467.543 334.978C467.657 334.978 467.751 334.887 467.753 334.772C467.755 334.657 467.663 334.561 467.547 334.559L461.011 334.44C460.893 334.444 460.799 334.53 460.797 334.646C460.795 334.762 460.888 334.858 461.003 334.86L467.539 334.978C467.541 334.978 467.542 334.978 467.543 334.978Z" fill="#21111D"/>
<path d="M471.633 378.412C471.679 378.412 471.726 378.397 471.764 378.367C484.308 368.356 493.513 352.324 493.605 352.164C493.662 352.063 493.627 351.935 493.526 351.878C493.425 351.82 493.297 351.856 493.239 351.956C493.148 352.116 483.981 368.079 471.502 378.039C471.411 378.111 471.396 378.243 471.469 378.333C471.51 378.385 471.572 378.412 471.633 378.412Z" fill="#21111D"/>
<path d="M510.997 379.909L511.129 379.865C511.172 379.85 515.429 378.409 520.096 375.813C520.197 375.757 520.234 375.629 520.177 375.528C520.121 375.426 519.992 375.39 519.892 375.446C515.718 377.768 511.876 379.159 511.127 379.421L490.956 356.576C491.385 356.281 492.443 355.523 493.563 354.517C493.649 354.439 493.656 354.306 493.578 354.22C493.501 354.134 493.368 354.127 493.281 354.205C491.857 355.485 490.539 356.353 490.526 356.361L490.323 356.494L510.997 379.909Z" fill="#21111D"/>
<path d="M477.624 337.067L475.825 338.055L475.201 343.853L475.825 345.138C475.825 345.138 477.11 345.262 477.152 344.972C477.193 344.682 477.624 337.067 477.624 337.067Z" fill="#FE9F73"/>
<path d="M488.206 319.056L488.618 318.963L497.239 320.499C497.239 320.499 496.767 320.608 496.741 320.608C496.716 320.608 488.206 319.056 488.206 319.056Z" fill="#E01B2F"/>
<path d="M492.108 348.175L482.827 344.554L488.207 319.056L497.341 320.609L492.108 348.175Z" fill="#DCF4FF"/>
<path d="M487.896 320.918L487.74 320.885L488.139 318.989L488.616 318.882L488.632 318.885L497.197 320.397L497.17 320.554L488.62 319.044L488.274 319.122L487.896 320.918Z" fill="black"/>
<path d="M492.108 348.175H473.692L478.926 320.609H497.341L492.108 348.175Z" fill="#FC4963"/>
<path d="M488.193 345.683C488.215 345.085 487.699 344.562 487.1 344.522L483.4 344.275C483.283 344.267 483.185 344.186 483.155 344.074C483.11 343.908 483.228 343.743 483.4 343.732L488.878 343.37C489.506 343.328 489.886 342.798 489.723 342.191C489.56 341.584 488.913 341.122 488.285 341.163L482.698 341.533C482.568 341.542 482.451 341.457 482.417 341.332L482.393 341.243C482.354 341.098 482.44 340.949 482.586 340.91L488.575 339.303C489.154 339.148 489.56 338.535 489.421 337.952C489.275 337.334 488.648 336.964 488.039 337.127L482.004 338.746C481.858 338.785 481.709 338.699 481.67 338.554L481.594 338.273C481.559 338.141 481.627 338.003 481.753 337.95L487.109 335.735C487.663 335.506 487.985 334.845 487.772 334.285C487.547 333.692 486.877 333.406 486.294 333.647C486.294 333.647 478.056 336.559 476.711 336.913L479.189 335.756C481.012 337.464 478.954 335.134 477.454 334.832C475.792 334.497 471.401 338.557 471.401 338.557C471.199 338.906 471.407 339.687 471.724 340.275C472.949 346.772 473.191 347.763 473.683 349.484L480.451 347.422C482.404 346.826 484.449 346.591 486.486 346.727L486.997 346.762C487.627 346.803 488.17 346.318 488.193 345.683Z" fill="#FE9F73"/>
<path d="M476.292 334.482L475.831 337.225L479.763 335.914L479.729 334.187L476.292 334.482Z" fill="#FC4963"/>
<path d="M478.958 320.618L479.287 320.5L497.239 320.499L497.341 320.609L478.958 320.618Z" fill="#E01B2F"/>
<path d="M478.847 320.612L475.814 336.838L475.971 336.868L479.004 320.641L478.847 320.612Z" fill="black"/>
<path d="M492.173 348.255L482.055 348.157L482.057 347.998L492.041 348.094L494.731 333.929L494.888 333.958L492.173 348.255Z" fill="black"/>
<path d="M493.612 322.189L493.482 322.281L494.54 323.773L494.67 323.681L493.612 322.189Z" fill="black"/>
<path d="M478.456 331.496L478.326 331.588L479.383 333.08L479.513 332.988L478.456 331.496Z" fill="black"/>
<path d="M479.671 332.108L479.541 332.2L480.599 333.691L480.729 333.599L479.671 332.108Z" fill="black"/>
<path d="M493.457 323.348L493.327 323.44L494.385 324.932L494.515 324.84L493.457 323.348Z" fill="black"/>
<path d="M430.74 311.19C430.74 311.19 424.19 311.853 420.122 313.428C416.055 315.003 412.236 320.309 412.485 325.532C412.734 330.755 424.143 360.847 432.592 365.987C441.042 371.127 447.351 367.479 447.351 367.479L477.152 352.226C477.152 352.226 474.662 341.034 471.092 337.884L464.534 339.962L449.177 316.827C449.177 316.827 444.263 308.04 430.74 311.19Z" fill="#018752"/>
<path d="M433.786 352.27C433.813 352.27 433.84 352.265 433.866 352.254C434.144 352.139 461.641 340.807 471.024 338.122C471.473 338.634 473.667 341.328 475.514 347.076C475.549 347.186 475.667 347.247 475.778 347.212C475.888 347.176 475.949 347.058 475.914 346.948C473.821 340.435 471.347 337.845 471.242 337.738L471.155 337.648L471.034 337.682C461.75 340.308 433.985 351.751 433.705 351.866C433.598 351.91 433.547 352.033 433.591 352.14C433.625 352.221 433.703 352.27 433.786 352.27Z" fill="#21111D"/>
<path d="M440.509 349.532C440.549 349.532 440.59 349.521 440.626 349.497C440.722 349.432 440.747 349.302 440.683 349.205C440.598 349.079 432.117 336.497 427.444 328.329C427.386 328.229 427.257 328.194 427.157 328.251C427.056 328.309 427.021 328.437 427.079 328.538C431.76 336.719 440.249 349.314 440.334 349.44C440.375 349.5 440.441 349.532 440.509 349.532Z" fill="#21111D"/>
<path d="M460.556 341.705C460.602 341.705 460.647 341.691 460.686 341.661C460.777 341.589 460.793 341.457 460.721 341.366C460.614 341.23 449.999 327.759 446.99 322.852C446.929 322.754 446.799 322.723 446.701 322.783C446.602 322.844 446.571 322.973 446.631 323.072C449.654 327.999 460.284 341.49 460.391 341.625C460.432 341.678 460.494 341.705 460.556 341.705Z" fill="#21111D"/>
<path d="M416.259 329.619C416.277 329.619 416.296 329.617 416.314 329.612C416.426 329.582 416.492 329.466 416.462 329.355C415.752 326.726 416.598 325.655 416.607 325.644C416.68 325.555 416.668 325.423 416.579 325.349C416.491 325.276 416.36 325.286 416.285 325.374C416.244 325.423 415.282 326.599 416.057 329.464C416.082 329.557 416.167 329.619 416.259 329.619Z" fill="#21111D"/>
<path d="M418.186 330.648C418.214 330.648 418.242 330.642 418.269 330.631C418.376 330.584 418.425 330.461 418.378 330.355C417.29 327.858 417.97 326.675 417.977 326.663C418.036 326.564 418.005 326.435 417.907 326.375C417.808 326.315 417.68 326.345 417.619 326.443C417.586 326.497 416.807 327.801 417.993 330.522C418.027 330.601 418.105 330.648 418.186 330.648Z" fill="#21111D"/>
<path d="M436.139 320.695C436.336 320.695 436.536 320.691 436.739 320.685C436.855 320.681 436.946 320.584 436.942 320.468C436.938 320.352 436.845 320.262 436.725 320.265C428.003 320.553 425.74 314.389 425.721 314.326C425.688 314.217 425.573 314.151 425.463 314.182C425.353 314.212 425.286 314.322 425.314 314.433C425.33 314.497 427.588 320.695 436.139 320.695Z" fill="#21111D"/>
<path d="M436.637 317.035C440.31 317.015 442.451 314.641 443.691 312.096C440.767 310.687 436.548 309.837 430.74 311.19C430.74 311.19 428.823 311.384 426.42 311.812C427.555 313.528 430.626 317.066 436.637 317.035Z" fill="#FE9F73"/>
<path d="M460.557 337.534C460.657 337.534 460.746 337.462 460.764 337.359L461.228 334.603L461.183 334.534L449.356 316.718C449.262 316.552 448.017 314.426 445.14 312.649C442.443 310.983 437.747 309.342 430.692 310.986C430.579 311.012 430.509 311.125 430.535 311.238C430.561 311.351 430.675 311.421 430.788 311.394C437.691 309.786 442.272 311.376 444.899 312.994C447.746 314.746 448.981 316.908 448.993 316.93L449.002 316.943L460.787 334.697L460.349 337.29C460.33 337.404 460.407 337.512 460.522 337.532C460.533 337.533 460.545 337.534 460.557 337.534Z" fill="#21111D"/>
<path d="M434.732 350.218C434.742 350.218 434.751 350.217 434.761 350.216L440.471 349.433C440.586 349.417 440.667 349.311 440.651 349.196C440.635 349.082 440.53 349.001 440.414 349.017L434.704 349.8C434.589 349.816 434.508 349.922 434.524 350.037C434.539 350.142 434.629 350.218 434.732 350.218Z" fill="#21111D"/>
<path d="M441.009 294.8V303.936C441.009 303.936 441.131 306.873 438.558 307.24L439.038 311.158C439.217 312.615 438.345 314.009 436.944 314.452C436.259 314.669 435.441 314.827 434.514 314.827C431.573 314.827 429.98 312.624 429.735 311.523C429.49 310.422 430.225 305.16 430.225 305.16L430.135 302.574L430.47 292.555L441.009 294.8Z" fill="#FE9F73"/>
<path d="M432.592 304.745C432.592 304.745 432.764 309.661 438.912 310.13L438.558 307.24C438.558 307.24 434.571 308.04 432.592 304.745Z" fill="#018752"/>
<path d="M441.435 302.554C441.435 302.554 442.236 308.438 438.324 308.647C432.726 308.946 432.184 305.755 431.851 303.145L431.795 297.756L431.975 296.192C432.37 296.639 432.612 297.2 432.665 297.794C432.781 299.086 433.068 302.567 433.391 302.721C433.847 302.939 440.564 301.987 441.435 302.554Z" fill="#49263E"/>
<path d="M433.908 299.592C433.878 299.592 433.847 299.581 433.823 299.558C433.774 299.511 433.773 299.433 433.82 299.385C433.837 299.367 435.522 297.645 437.062 298.885C437.115 298.927 437.123 299.004 437.081 299.057C437.038 299.109 436.961 299.118 436.909 299.075C435.544 297.977 434.059 299.489 433.997 299.554C433.973 299.579 433.941 299.592 433.908 299.592Z" fill="#49263E"/>
<path d="M429.685 298.308L432.33 298.858L432.808 299.352C432.808 299.352 432.579 294.924 432.081 294.054C431.582 293.183 429.685 298.308 429.685 298.308Z" fill="#49263E"/>
<path d="M438.959 298.858C438.925 298.858 438.891 298.843 438.867 298.815C438.823 298.764 438.828 298.687 438.879 298.643C438.928 298.6 440.098 297.602 440.837 298.234C440.888 298.278 440.894 298.356 440.85 298.407C440.806 298.458 440.728 298.464 440.677 298.42C440.098 297.924 439.05 298.819 439.04 298.828C439.016 298.848 438.988 298.858 438.959 298.858Z" fill="#49263E"/>
<path d="M436.018 300.454C436.221 300.454 436.386 300.289 436.386 300.086C436.386 299.884 436.221 299.719 436.018 299.719C435.815 299.719 435.651 299.884 435.651 300.086C435.651 300.289 435.815 300.454 436.018 300.454Z" fill="black"/>
<path d="M439.926 300.086C440.129 300.086 440.294 299.922 440.294 299.719C440.294 299.516 440.129 299.352 439.926 299.352C439.723 299.352 439.558 299.516 439.558 299.719C439.558 299.922 439.723 300.086 439.926 300.086Z" fill="black"/>
<path d="M431.144 302.161C432.362 302.161 433.35 301.175 433.35 299.959C433.35 298.742 432.362 297.756 431.144 297.756C429.926 297.756 428.939 298.742 428.939 299.959C428.939 301.175 429.926 302.161 431.144 302.161Z" fill="#FE9F73"/>
<path d="M430.758 301.181C430.3 301.181 429.994 300.837 429.893 300.494C429.774 300.087 429.91 299.692 430.241 299.487C430.729 299.184 431.172 299.379 431.399 299.528C431.304 299.277 431.154 299.096 430.954 298.985C430.519 298.746 429.98 298.92 429.974 298.922C429.942 298.933 429.908 298.915 429.897 298.883C429.886 298.851 429.904 298.817 429.936 298.806C429.96 298.798 430.53 298.613 431.012 298.878C431.29 299.03 431.479 299.3 431.575 299.68L431.628 299.893L431.472 299.738C431.45 299.716 430.925 299.207 430.305 299.591C429.962 299.804 429.932 300.192 430.01 300.459C430.092 300.737 430.336 301.059 430.757 301.059C430.761 301.059 430.765 301.058 430.77 301.059C430.803 301.059 430.83 301.086 430.831 301.119C430.831 301.153 430.804 301.181 430.77 301.181C430.767 301.181 430.762 301.181 430.758 301.181Z" fill="#018752"/>
<path d="M437.683 302.562C437.657 302.562 437.633 302.546 437.625 302.521C437.614 302.489 437.632 302.454 437.664 302.443L438.892 302.038L438.504 299.151C438.499 299.118 438.523 299.087 438.556 299.082C438.59 299.077 438.621 299.101 438.625 299.135L439.027 302.122L437.702 302.559C437.696 302.562 437.689 302.562 437.683 302.562Z" fill="#018752"/>
<path d="M436.731 303.754C436.769 303.747 439.158 303.691 439.158 303.691C439.158 303.691 438.858 304.678 437.97 304.701C437.083 304.724 436.731 303.754 436.731 303.754Z" fill="#FBFDFC"/>
<path d="M429.685 298.308C429.685 298.308 428.94 294.019 430.255 292.42C431.57 290.822 439.117 288.024 440.032 288.823C440.947 289.622 440.032 290.593 440.032 290.593C440.032 290.593 443.062 289.623 443.749 292.306C444.435 294.989 437.917 296.131 434.029 294.875C434.029 294.875 431.457 295.624 429.685 298.308Z" fill="#49263E"/>
<path d="M441.707 368.943C442.234 368.943 442.72 368.915 443.161 368.87C445.809 368.599 447.389 367.699 447.455 367.661C447.556 367.603 447.59 367.475 447.532 367.374C447.474 367.274 447.345 367.24 447.245 367.298C447.229 367.307 445.66 368.196 443.095 368.454C440.73 368.693 437.006 368.426 432.701 365.808C427.297 362.52 420.535 348.67 416.387 337.809C416.346 337.701 416.224 337.646 416.116 337.688C416.007 337.729 415.953 337.85 415.994 337.959C420.166 348.882 426.988 362.824 432.482 366.166C436.098 368.366 439.321 368.943 441.707 368.943Z" fill="#21111D"/>
<path d="M337.929 111.729C338.116 110.456 339.321 109.413 340.61 109.407C340.745 109.407 340.883 109.417 341.009 109.466C341.152 109.522 341.272 109.626 341.41 109.694C341.749 109.859 342.2 109.814 342.448 110.098C342.715 110.404 342.568 110.877 342.647 111.276C342.707 111.579 342.902 111.838 343.013 112.126C343.232 112.692 343.113 113.344 342.835 113.884C342.557 114.423 342.134 114.872 341.717 115.314C341.376 115.675 341.019 116.047 340.556 116.23C339.651 116.589 338.98 115.918 338.692 115.128C338.308 114.071 337.76 112.878 337.929 111.729Z" fill="#FDD118"/>
<path d="M332.631 117.427C332.631 117.427 330.038 124.859 329.724 125.484C329.412 126.109 327.826 128.991 328.395 132.384C328.965 135.778 339.231 136.983 339.231 136.983L339.044 113.697C339.044 113.697 334.459 113.141 332.631 117.427Z" fill="#FDD118"/>
<path d="M345.353 117.427C345.353 117.427 347.946 124.859 348.259 125.484C348.572 126.109 350.158 128.991 349.589 132.384C349.019 135.778 338.753 136.983 338.753 136.983L338.939 113.697C338.939 113.697 343.525 113.141 345.353 117.427Z" fill="#FDD118"/>
<path d="M342.459 133.322L335.985 133.21L336.333 127.931H341.798L342.459 133.322Z" fill="#FE9F73"/>
<path d="M336.188 130.118C336.812 130.64 337.664 131.057 338.468 131.161C338.601 131.164 338.738 131.165 338.878 131.166V131.166C338.888 131.166 338.897 131.166 338.907 131.166C338.917 131.166 338.926 131.166 338.936 131.166V131.166C339.076 131.165 339.214 131.164 339.346 131.161C340.289 131.039 341.334 130.503 342.031 129.828L341.798 127.931H336.332L336.188 130.118Z" fill="#018752"/>
<path d="M343.192 118.799C342.928 118.27 342.583 117.918 342.245 117.682C341.56 117.367 340.437 116.958 339.007 116.799H338.938H338.897H338.828C337.398 116.958 336.275 117.367 335.59 117.682C335.252 117.918 334.907 118.27 334.643 118.799C334.517 119.774 334.363 121.573 334.335 123.37C334.309 124.985 334.743 126.582 335.635 127.889C336.307 128.873 337.272 129.756 338.609 129.886C338.702 129.887 338.799 129.888 338.897 129.888C338.904 129.888 338.911 129.888 338.917 129.888C338.924 129.888 338.931 129.888 338.938 129.888C339.036 129.888 339.133 129.887 339.226 129.886C340.562 129.756 341.528 128.873 342.2 127.889C343.092 126.582 343.526 124.985 343.5 123.37C343.472 121.573 343.318 119.774 343.192 118.799Z" fill="#FE9F73"/>
<path d="M342.387 124.418C342.387 125.247 343.06 125.92 343.891 125.92C344.721 125.92 345.395 125.247 345.395 124.418C345.395 123.588 344.721 122.916 343.891 122.916C343.06 122.916 342.387 123.588 342.387 124.418Z" fill="#FE9F73"/>
<path d="M344.002 125.345C344.318 125.345 344.529 125.108 344.598 124.871C344.68 124.591 344.586 124.319 344.358 124.178C344.034 123.977 343.738 124.094 343.578 124.195C343.643 124.035 343.741 123.918 343.872 123.846C344.167 123.685 344.53 123.803 344.534 123.804C344.559 123.812 344.586 123.799 344.595 123.774C344.603 123.749 344.59 123.721 344.565 123.713C344.548 123.707 344.157 123.58 343.826 123.762C343.634 123.867 343.504 124.052 343.439 124.313L343.397 124.481L343.52 124.359C343.534 124.344 343.889 124 344.307 124.26C344.538 124.403 344.558 124.664 344.505 124.844C344.45 125.033 344.283 125.252 343.994 125.249C343.968 125.248 343.946 125.269 343.945 125.296C343.945 125.323 343.966 125.344 343.993 125.345C343.996 125.344 343.999 125.345 344.002 125.345Z" fill="#018752"/>
<path d="M335.837 124.418C335.837 125.247 335.163 125.92 334.333 125.92C333.502 125.92 332.829 125.247 332.829 124.418C332.829 123.588 333.502 122.916 334.333 122.916C335.163 122.916 335.837 123.588 335.837 124.418Z" fill="#FE9F73"/>
<path d="M334.222 125.345C333.906 125.345 333.695 125.108 333.626 124.871C333.544 124.591 333.638 124.319 333.866 124.178C334.19 123.977 334.486 124.094 334.646 124.195C334.581 124.035 334.483 123.918 334.352 123.846C334.057 123.685 333.694 123.803 333.69 123.804C333.665 123.812 333.638 123.799 333.629 123.774C333.621 123.749 333.634 123.721 333.659 123.713C333.676 123.707 334.067 123.58 334.398 123.762C334.59 123.867 334.72 124.052 334.785 124.313L334.827 124.481L334.704 124.359C334.69 124.344 334.335 124 333.917 124.26C333.686 124.403 333.666 124.664 333.719 124.844C333.774 125.033 333.941 125.252 334.23 125.249C334.256 125.248 334.278 125.269 334.279 125.296C334.279 125.323 334.258 125.344 334.231 125.345C334.228 125.344 334.225 125.345 334.222 125.345Z" fill="#018752"/>
<path d="M338.725 125.876C338.751 125.876 338.774 125.858 338.779 125.832C338.786 125.803 338.767 125.774 338.737 125.767C338.382 125.691 338.158 125.255 338.094 125.112C338.598 124.843 338.905 124.494 339.008 124.073C339.176 123.386 338.74 122.765 338.721 122.739C338.703 122.715 338.669 122.709 338.644 122.726C338.62 122.744 338.614 122.778 338.632 122.803C338.636 122.809 339.057 123.41 338.901 124.047C338.803 124.448 338.499 124.781 337.998 125.038L337.954 125.06L337.972 125.107C337.982 125.134 338.233 125.772 338.714 125.875C338.718 125.876 338.721 125.876 338.725 125.876Z" fill="#018752"/>
<path d="M337.221 123.768C337.391 123.768 337.528 123.631 337.528 123.462C337.528 123.293 337.391 123.155 337.221 123.155C337.052 123.155 336.914 123.293 336.914 123.462C336.914 123.631 337.052 123.768 337.221 123.768Z" fill="black"/>
<path d="M341.003 123.828C341.172 123.828 341.309 123.691 341.309 123.522C341.309 123.352 341.172 123.215 341.003 123.215C340.833 123.215 340.696 123.352 340.696 123.522C340.696 123.691 340.833 123.828 341.003 123.828Z" fill="black"/>
<path d="M333.679 122.969C333.679 122.969 339.231 120.291 339.689 116.88L339.926 117.655C339.926 117.655 341.851 122.676 344.231 122.947C344.231 122.947 346.311 115.419 340.343 113.923C334.374 112.427 333.202 118.325 333.679 122.969Z" fill="#FDD118"/>
<path d="M337.987 126.487C338.016 126.482 339.847 126.442 339.847 126.442C339.847 126.442 339.616 127.198 338.936 127.214C338.255 127.231 337.987 126.487 337.987 126.487Z" fill="#FBFDFC"/>
<path d="M342.27 122.862C342.242 122.862 342.214 122.853 342.191 122.833C341.413 122.174 340.308 122.538 340.297 122.542C340.234 122.563 340.164 122.529 340.143 122.465C340.121 122.402 340.155 122.333 340.219 122.311C340.27 122.294 341.467 121.9 342.349 122.648C342.4 122.691 342.407 122.768 342.363 122.819C342.339 122.848 342.305 122.862 342.27 122.862Z" fill="#FDD118"/>
<path d="M336.01 122.838C335.975 122.838 335.94 122.823 335.915 122.793C335.873 122.741 335.881 122.664 335.934 122.622C336.834 121.896 338.021 122.318 338.071 122.337C338.134 122.36 338.166 122.43 338.143 122.493C338.12 122.556 338.051 122.589 337.987 122.565C337.976 122.562 336.878 122.173 336.087 122.811C336.064 122.829 336.037 122.838 336.01 122.838Z" fill="#FDD118"/>
<path d="M334.68 125.879C334.68 125.879 335.233 129.943 338.609 129.886L334.68 125.879Z" fill="#FE9F73"/>
<path d="M343.229 125.766C343.229 125.766 342.675 129.943 339.3 129.886L341.777 124.16L343.229 125.766Z" fill="#FE9F73"/>
<path d="M342.816 114.614C342.791 114.614 342.766 114.61 342.741 114.602C340.089 113.752 338.409 113.835 337.81 113.91C337.781 113.914 337.76 113.916 337.75 113.916C337.615 113.925 337.5 113.823 337.491 113.689C337.482 113.556 337.583 113.441 337.717 113.431L337.75 113.427C338.533 113.328 340.244 113.29 342.89 114.139C343.018 114.18 343.089 114.317 343.048 114.445C343.015 114.548 342.919 114.614 342.816 114.614Z" fill="#FDD118"/>
<path d="M335.607 145.693L344.081 149.912L354.267 156.183L356.862 159.258L361.807 166.859C378.94 163.046 374.832 153.359 373.813 151.651C371.037 146.999 364.784 141.618 361.336 137.648C360.539 136.73 359.71 135.9 358.919 135.175C356.56 133.011 353.462 131.828 350.259 131.828H345.313H342.344L335.607 145.693ZM355.829 147.88C355.829 147.88 356.806 148.737 356.851 148.783C359.122 151.046 362.087 154 362.087 154L362.455 154.127L356.848 156.898C356.848 156.898 356.28 157.121 356.221 157.001C356.195 156.946 355.829 147.88 355.829 147.88Z" fill="#018752"/>
<path d="M335.218 131.828H332.25H327.303C324.1 131.828 321.003 133.011 318.644 135.175C317.852 135.901 317.024 136.73 316.226 137.649C312.779 141.619 306.525 146.999 303.749 151.652C302.73 153.359 298.623 163.047 315.755 166.86L320.701 159.259L323.295 156.183L333.482 149.912L341.955 145.694L335.218 131.828ZM321.341 157.001C321.282 157.121 320.715 156.898 320.715 156.898L315.107 154.127L315.475 154C315.475 154 318.44 151.046 320.711 148.783C320.756 148.737 321.733 147.88 321.733 147.88C321.733 147.88 321.368 156.946 321.341 157.001Z" fill="#018752"/>
<path d="M325.59 241.833L336.15 238.533L332.285 226.171L321.294 228.012L325.59 241.833Z" fill="#FE9F73"/>
<path d="M318.541 250.93L337.5 239.525L335.222 235.748C335.222 235.748 332.75 234.765 331.208 236.954C331.208 236.954 329.444 241.052 325.038 240.074L319.818 247.28C319.818 247.28 317.766 249.646 318.541 250.93Z" fill="#FDD118"/>
<path d="M338.297 240.846L318.936 252.494C318.703 252.634 318.401 252.559 318.261 252.327L317.971 251.846C317.831 251.614 317.906 251.312 318.139 251.172L337.5 239.525L338.297 240.846Z" fill="#683D46"/>
<path d="M339.388 202.083L334.494 192.147L323.956 197.323L328.85 207.26L339.388 202.083Z" fill="#FE9F73"/>
<path d="M342.007 189.179C341.763 189.179 332.806 193.141 332.806 193.141L329.95 195.001C329.95 195.001 334.313 224.682 335.123 232.607C335.123 232.607 328.807 237.055 322.409 237.217C322.409 237.217 309.209 191.269 309.209 185.432C309.209 179.595 337.285 165.766 337.285 165.766L350.06 173.129C350.06 173.129 369.257 174.705 373.671 177.696C378.084 180.687 339.402 198.184 339.402 198.184L342.007 189.179Z" fill="#49263E"/>
<path d="M332.139 192.03C332.139 192.03 353.81 179.126 361.261 177.116C368.711 175.107 374.056 176.805 374.865 179.15C375.675 181.496 376.485 188.127 374.865 190.311C373.246 192.495 344.983 202.927 338.504 204.706C338.504 204.706 332.737 198.015 332.139 192.03Z" fill="#49263E"/>
<path d="M374.518 178.881C372.805 175.429 354.971 173.668 353.942 173.823C353.855 173.855 353.755 173.825 353.701 173.746C353.638 173.652 353.662 173.525 353.756 173.461C354.066 173.251 359.07 173.855 359.121 173.862C361.253 174.124 365.347 174.7 368.813 175.613C372.279 176.526 374.322 177.565 374.885 178.699C374.936 178.8 374.894 178.923 374.793 178.973C374.764 178.988 374.733 178.995 374.702 178.995C374.627 178.995 374.554 178.953 374.518 178.881Z" fill="#21111D"/>
<path d="M334.302 198.449C334.339 198.449 334.377 198.439 334.411 198.417C334.507 198.356 334.535 198.23 334.474 198.134C332.704 195.354 332.378 192.449 332.328 191.847C333.522 191.046 345.497 183.124 362.393 175.906C362.497 175.862 362.546 175.742 362.501 175.638C362.457 175.534 362.337 175.486 362.232 175.53C344.464 183.121 332.122 191.491 332 191.574L331.905 191.639L331.911 191.753C331.917 191.89 332.093 195.156 334.129 198.354C334.167 198.415 334.234 198.449 334.302 198.449Z" fill="#21111D"/>
<path d="M358.536 177.514C358.597 177.514 358.657 177.487 358.697 177.435C359.48 176.439 360.932 175.586 360.946 175.578C361.044 175.521 361.077 175.396 361.02 175.298C360.963 175.201 360.838 175.167 360.74 175.224C360.678 175.26 359.206 176.124 358.374 177.183C358.305 177.272 358.32 177.401 358.409 177.47C358.447 177.5 358.491 177.514 358.536 177.514Z" fill="#21111D"/>
<path d="M313.953 206.838C313.969 206.838 313.986 206.836 314.002 206.833C314.112 206.806 314.18 206.695 314.153 206.585C314.11 206.41 309.912 189.061 309.391 186.07C308.891 183.204 315.063 179.002 315.125 178.96C315.219 178.896 315.243 178.769 315.18 178.675C315.117 178.582 314.989 178.557 314.895 178.62C314.632 178.798 308.441 183.014 308.986 186.14C309.51 189.144 313.712 206.507 313.754 206.682C313.777 206.775 313.861 206.838 313.953 206.838Z" fill="#21111D"/>
<path d="M327.363 196.753C327.401 196.753 327.439 196.743 327.473 196.721L332.461 193.538C332.557 193.477 332.585 193.351 332.523 193.255C332.462 193.16 332.336 193.132 332.24 193.193L327.253 196.376C327.157 196.437 327.129 196.563 327.19 196.658C327.229 196.72 327.296 196.753 327.363 196.753Z" fill="#21111D"/>
<path d="M322.389 237.422C322.398 237.422 322.407 237.422 322.416 237.42C322.786 237.37 331.512 236.159 335.241 232.759L335.321 232.686L335.306 232.58L331.541 204.679L330.423 194.756C330.41 194.644 330.312 194.562 330.197 194.576C330.084 194.588 330.003 194.69 330.016 194.802L331.135 204.729L334.886 232.528C331.203 235.788 322.45 237.002 322.361 237.014C322.249 237.03 322.171 237.133 322.186 237.245C322.199 237.347 322.287 237.422 322.389 237.422Z" fill="#21111D"/>
<path d="M371.77 190.709C371.812 190.709 371.855 190.696 371.892 190.669C374.226 188.952 374.208 187.472 374.206 187.409C374.203 187.296 374.104 187.202 373.995 187.211C373.883 187.214 373.794 187.308 373.796 187.42C373.797 187.442 373.783 188.77 371.648 190.339C371.557 190.406 371.538 190.534 371.605 190.626C371.645 190.68 371.707 190.709 371.77 190.709Z" fill="#21111D"/>
<path d="M369.674 190.325C369.706 190.325 369.739 190.317 369.77 190.301C372.331 188.944 372.53 187.477 372.538 187.415C372.551 187.303 372.47 187.201 372.358 187.188C372.248 187.176 372.145 187.254 372.131 187.366C372.128 187.388 371.919 188.699 369.578 189.939C369.478 189.992 369.44 190.116 369.493 190.216C369.53 190.286 369.601 190.325 369.674 190.325Z" fill="#21111D"/>
<path d="M321.341 157.001L321.064 174.583C321.064 174.583 340.045 178.047 356.946 173.557C357.361 173.447 356.153 156.251 356.153 156.251C356.153 156.251 356.153 152.915 354.392 151.884C352.63 150.852 338.348 132.952 338.004 132.952C337.66 132.952 321.341 157.001 321.341 157.001Z" fill="#018752"/>
<path d="M339.124 137.649C339.017 137.649 338.927 137.565 338.92 137.457C338.913 137.344 338.999 137.247 339.112 137.24C345.348 136.849 347.384 132.583 347.403 132.54C347.451 132.437 347.572 132.392 347.675 132.439C347.778 132.486 347.823 132.607 347.776 132.71C347.755 132.755 345.629 137.241 339.137 137.648C339.133 137.649 339.129 137.649 339.124 137.649Z" fill="#21111D"/>
<path d="M332.25 131.828H346C346 131.828 343.514 136.127 338.763 136.108C336.584 136.1 334.254 135.3 332.25 131.828Z" fill="#FE9F73"/>
<path d="M330.897 154.744L323.533 153.19C323.533 153.19 325.79 160.621 325.598 160.658C324.357 160.895 319.6 166.245 326.925 165.981C327.074 165.975 331.291 165.166 331.291 165.166L330.897 154.744Z" fill="#FDD118"/>
<path d="M343.68 154.257L345.83 164.542C345.83 164.542 350.252 160.947 350.252 160.555C350.252 160.163 348.852 155.381 348.705 155.288C348.557 155.195 343.68 154.257 343.68 154.257Z" fill="#FDD118"/>
<path d="M324.591 147.955V146.501L338.64 151.046L332.754 156.803L324.591 147.955Z" fill="#DCF4FF"/>
<path d="M353.221 147.955V146.501L339.172 151.046L345.058 156.803L353.221 147.955Z" fill="#DCF4FF"/>
<path d="M323.985 147C323.985 147.534 325.055 168.735 325.055 168.735L338.792 172.299V151.454L323.985 147Z" fill="#FEC786"/>
<path d="M353.6 147C353.6 147.534 352.529 168.735 352.529 168.735L338.792 172.299V151.454L353.6 147Z" fill="#FEC786"/>
<path d="M339.677 172.299H338.09C337.908 172.299 337.76 172.151 337.76 171.97V151.333C337.76 151.175 337.889 151.046 338.048 151.046H339.718C339.877 151.046 340.006 151.174 340.006 151.333V171.97C340.006 172.151 339.859 172.299 339.677 172.299Z" fill="#F99247"/>
<g opacity="0.5">
<path d="M340.006 153.379H337.76V154.409H340.006V153.379Z" fill="#F99247"/>
</g>
<g opacity="0.5">
<path d="M340.006 169.561H337.76V170.591H340.006V169.561Z" fill="#F99247"/>
</g>
<path d="M331.905 161.883C332.777 161.001 331.969 159.88 331.969 159.88C332.144 159.156 332.12 158.653 332.06 158.344C332.019 158.13 331.806 157.999 331.597 158.061C330.643 158.348 327.886 159.188 326.184 159.817C325.008 159.64 324.593 159.067 324.593 159.067L324.563 159.116C324.54 158.098 324.511 156.826 324.511 156.682C324.511 156.44 324.122 156.051 323.515 156.819C322.908 157.588 321.733 159.65 321.733 159.65L318.181 159.649L316.226 166.404C316.226 166.404 323.594 167.444 324.728 167.525C325.862 167.606 329.809 166.677 330.983 165.707C332.157 164.736 331.904 163.867 331.904 163.867C332.777 162.819 331.905 161.883 331.905 161.883Z" fill="#F78C63"/>
<path d="M329.474 161.19C329.416 161.19 329.362 161.153 329.344 161.096C329.32 161.024 329.36 160.947 329.431 160.924C330.438 160.599 331.886 159.77 331.901 159.761C331.966 159.724 332.05 159.747 332.088 159.812C332.125 159.877 332.103 159.96 332.037 159.998C331.977 160.033 330.55 160.849 329.516 161.183C329.501 161.188 329.487 161.19 329.474 161.19Z" fill="#018752"/>
<path d="M329.473 162.919C329.409 162.919 329.352 162.873 329.339 162.807C329.325 162.733 329.375 162.662 329.449 162.648C330.714 162.413 331.825 161.771 331.836 161.765C331.901 161.726 331.985 161.749 332.023 161.813C332.061 161.879 332.039 161.962 331.974 162C331.927 162.028 330.813 162.672 329.499 162.916C329.49 162.918 329.482 162.919 329.473 162.919Z" fill="#018752"/>
<path d="M329.777 164.89C329.714 164.89 329.658 164.846 329.643 164.782C329.628 164.709 329.674 164.636 329.748 164.62C330.835 164.386 331.821 163.759 331.831 163.752C331.894 163.711 331.979 163.73 332.02 163.793C332.061 163.857 332.042 163.941 331.979 163.982C331.937 164.009 330.941 164.642 329.806 164.887C329.796 164.889 329.787 164.89 329.777 164.89Z" fill="#018752"/>
<path d="M322.594 157.832L321.734 167.53C321.734 167.53 318.662 167.867 312.733 166.063C306.804 164.259 311.721 154.56 312.084 154.409C312.448 154.259 316.387 154.753 316.387 154.753L322.594 157.832Z" fill="#018752"/>
<path d="M321.898 167.713L321.727 167.707C321.085 167.685 305.965 167.072 302.99 159.111C302.944 159.021 301.687 156.442 303.025 152.78C304.35 149.151 313.645 140.136 314.04 139.754C314.188 139.585 317.92 135.362 319.742 134.059C319.823 134.001 319.933 134.02 319.99 134.1C320.047 134.179 320.029 134.29 319.949 134.347C318.16 135.627 314.335 139.955 314.297 139.999C314.191 140.102 304.656 149.349 303.358 152.902C302.076 156.412 303.303 158.945 303.316 158.97C306.049 166.283 319.868 167.254 321.569 167.346C321.753 164.885 322.318 158.865 322.406 157.937C316.559 154.992 310.836 152.265 310.779 152.238C310.69 152.196 310.653 152.09 310.695 152.002C310.737 151.913 310.843 151.876 310.931 151.918C310.989 151.945 316.787 154.707 322.674 157.675L322.782 157.729L322.771 157.849C322.764 157.921 322.092 165.028 321.911 167.543L321.898 167.713Z" fill="black"/>
<path d="M315.375 154.435C315.33 154.435 315.285 154.418 315.251 154.384C315.18 154.316 315.179 154.204 315.247 154.134L321.577 147.637C321.646 147.567 321.758 147.565 321.828 147.633C321.898 147.702 321.9 147.814 321.831 147.884L315.502 154.381C315.467 154.417 315.421 154.435 315.375 154.435Z" fill="black"/>
<path d="M321.341 157.39C321.339 157.39 321.337 157.39 321.334 157.39C321.236 157.386 321.16 157.304 321.164 157.206L321.556 146.993C321.56 146.895 321.63 146.817 321.741 146.823C321.839 146.826 321.915 146.909 321.911 147.006L321.519 157.219C321.515 157.315 321.436 157.39 321.341 157.39Z" fill="black"/>
<path d="M315.476 154.177C315.417 154.177 315.359 154.148 315.325 154.095L314.24 152.374C314.187 152.291 314.212 152.181 314.295 152.129C314.378 152.077 314.488 152.102 314.54 152.185L315.626 153.906C315.678 153.988 315.653 154.098 315.57 154.15C315.541 154.168 315.508 154.177 315.476 154.177Z" fill="black"/>
<path d="M345.658 161.883C344.786 161.001 345.594 159.88 345.594 159.88C345.465 159.349 345.444 158.937 345.465 158.633C345.491 158.269 345.854 158.028 346.204 158.133C347.319 158.471 349.802 159.234 351.379 159.817C352.554 159.64 352.969 159.067 352.969 159.067L353 159.116C353.023 158.098 353.051 156.826 353.051 156.682C353.051 156.44 353.44 156.051 354.048 156.819C354.655 157.588 355.83 159.65 355.83 159.65L359.382 159.649L361.337 166.404C361.337 166.404 353.969 167.444 352.835 167.525C351.701 167.606 347.754 166.677 346.58 165.707C345.405 164.736 345.659 163.867 345.659 163.867C344.786 162.819 345.658 161.883 345.658 161.883Z" fill="#F78C63"/>
<path d="M348.089 161.19C348.147 161.19 348.201 161.153 348.219 161.096C348.242 161.024 348.203 160.947 348.131 160.924C347.125 160.599 345.677 159.77 345.662 159.761C345.597 159.724 345.513 159.747 345.475 159.812C345.438 159.877 345.46 159.96 345.526 159.998C345.586 160.033 347.013 160.849 348.047 161.183C348.061 161.188 348.075 161.19 348.089 161.19Z" fill="#018752"/>
<path d="M348.089 162.919C348.154 162.919 348.211 162.873 348.224 162.807C348.237 162.733 348.188 162.662 348.114 162.648C346.848 162.413 345.738 161.771 345.727 161.765C345.661 161.726 345.578 161.749 345.54 161.813C345.502 161.879 345.524 161.962 345.589 162C345.636 162.028 346.75 162.672 348.064 162.916C348.073 162.918 348.081 162.919 348.089 162.919Z" fill="#018752"/>
<path d="M347.786 164.89C347.849 164.89 347.905 164.846 347.919 164.782C347.935 164.709 347.888 164.636 347.814 164.62C346.727 164.386 345.741 163.759 345.732 163.752C345.668 163.711 345.584 163.73 345.543 163.793C345.502 163.857 345.521 163.941 345.584 163.982C345.626 164.009 346.622 164.642 347.757 164.887C347.767 164.889 347.776 164.89 347.786 164.89Z" fill="#018752"/>
<path d="M354.969 157.832L355.829 167.53C355.829 167.53 358.9 167.867 364.829 166.063C370.759 164.259 365.842 154.56 365.478 154.409C365.115 154.259 361.175 154.753 361.175 154.753L354.969 157.832Z" fill="#018752"/>
<path d="M355.664 167.713L355.652 167.543C355.471 165.028 354.799 157.92 354.792 157.849L354.781 157.729L354.889 157.674C360.776 154.707 366.574 151.945 366.632 151.917C366.72 151.875 366.826 151.913 366.868 152.001C366.91 152.09 366.873 152.195 366.784 152.237C366.727 152.265 361.004 154.991 355.157 157.936C355.245 158.864 355.811 164.885 355.994 167.345C357.695 167.254 371.513 166.284 374.24 158.987C374.26 158.945 375.487 156.412 374.205 152.901C372.907 149.349 363.372 140.101 363.276 140.008C363.228 139.955 359.403 135.627 357.614 134.346C357.535 134.29 357.516 134.179 357.573 134.099C357.63 134.02 357.741 134.001 357.821 134.058C359.643 135.362 363.375 139.585 363.533 139.764C363.918 140.135 373.213 149.151 374.538 152.78C375.876 156.441 374.62 159.02 374.565 159.128C371.598 167.072 356.478 167.685 355.836 167.707L355.664 167.713Z" fill="black"/>
<path d="M362.188 154.435C362.141 154.435 362.095 154.417 362.06 154.381L355.731 147.884C355.663 147.814 355.664 147.702 355.734 147.633C355.804 147.565 355.917 147.566 355.985 147.637L362.315 154.134C362.383 154.204 362.382 154.316 362.311 154.384C362.277 154.418 362.232 154.435 362.188 154.435Z" fill="black"/>
<path d="M356.221 157.39C356.126 157.39 356.048 157.315 356.044 157.219L355.651 147.006C355.648 146.908 355.724 146.826 355.822 146.822C355.933 146.816 356.003 146.895 356.006 146.993L356.399 157.206C356.403 157.304 356.326 157.386 356.228 157.39C356.226 157.39 356.224 157.39 356.221 157.39Z" fill="black"/>
<path d="M362.087 154.177C362.054 154.177 362.022 154.168 361.992 154.15C361.909 154.098 361.884 153.988 361.937 153.906L363.022 152.185C363.074 152.102 363.184 152.077 363.267 152.129C363.35 152.181 363.375 152.291 363.323 152.374L362.237 154.095C362.204 154.148 362.146 154.177 362.087 154.177Z" fill="black"/>
<path d="M130.991 365.986L146.488 366.196L146.71 351.73L131.275 349.821L130.991 365.986Z" fill="#FE9F73"/>
<path d="M116.063 371.358L147.472 367.539L146.709 361.282C146.709 361.282 144.059 358.557 140.767 360.513C140.767 360.513 136.067 364.83 130.891 360.984L119.865 367.34C119.865 367.34 115.804 369.231 116.063 371.358Z" fill="#018752"/>
<path d="M147.739 369.728L115.257 373.678C115.096 373.697 114.95 373.583 114.931 373.423L114.735 371.814C114.715 371.653 114.829 371.508 114.99 371.488L147.472 367.539L147.739 369.728Z" fill="#472A31"/>
<path d="M127.628 362.865C128.88 364.365 131.395 367.381 132.995 369.299L135.135 369.039C133.707 367.325 130.71 363.733 129.22 361.947L127.628 362.865Z" fill="#D7E4F7"/>
<path d="M129.561 369.716L131.702 369.456C130.539 368.062 128.272 365.343 126.666 363.419L125.074 364.337C126.423 365.954 128.291 368.194 129.561 369.716Z" fill="#D7E4F7"/>
<path d="M179.184 314.398C179.184 314.398 192.524 314.617 201.874 314.297C204.875 314.194 207.546 314.405 209.128 314.055C215.635 312.612 217.238 292.326 209.849 279.897C202.459 267.469 176.605 305.628 176.605 305.628L179.184 314.398Z" fill="#FECC86"/>
<path d="M155.044 365.986L170.541 366.196L170.763 351.73L155.327 349.821L155.044 365.986Z" fill="#FE9F73"/>
<path d="M141.233 372.934L172.247 366.678L170.997 360.5C170.997 360.5 168.141 357.99 165.013 360.196C165.013 360.196 160.665 364.867 155.204 361.436L144.708 368.633C144.708 368.633 140.808 370.834 141.233 372.934Z" fill="#FDD118"/>
<path d="M172.684 368.84L140.61 375.311C140.451 375.343 140.297 375.24 140.265 375.082L139.943 373.493C139.911 373.335 140.014 373.18 140.172 373.148L172.246 366.678L172.684 368.84Z" fill="#683D46"/>
<path d="M152.098 363.566C153.463 364.964 156.206 367.774 157.951 369.561L160.065 369.135C158.507 367.538 155.239 364.19 153.613 362.527L152.098 363.566Z" fill="#D7E4F7"/>
<path d="M154.561 370.245L156.675 369.819C155.407 368.52 152.934 365.986 151.183 364.193L149.667 365.232C151.138 366.739 153.176 368.827 154.561 370.245Z" fill="#D7E4F7"/>
<path d="M164.821 287.25C164.821 287.25 132.052 289.341 131.106 293.119C130.16 296.898 127.45 337.073 129.477 354.212C129.477 354.212 141.91 355.067 147.856 353.628L149.303 311.836L159.117 310.712L181.6 283.721L164.821 287.25Z" fill="#FFB357"/>
<path d="M180.564 286.631C180.564 286.631 155.293 293.752 154.347 297.531C153.401 301.31 150.708 337.163 152.735 354.302C152.735 354.302 166.104 355.067 172.05 353.627L173.653 314.205L179.419 314.405L193.402 289.838L180.564 286.631Z" fill="#FECC86"/>
<path d="M164.028 354.768C169.936 354.768 172.042 353.88 172.142 353.836L172.273 353.779L173.824 314.124L171.383 315.274L171.577 315.686L173.339 314.856L171.829 353.467C171.19 353.688 168.126 354.57 160.89 354.237L160.869 354.692C162.025 354.745 163.076 354.768 164.028 354.768Z" fill="#21111D"/>
<path d="M169.568 346.217C170.199 343.788 170.379 320.101 170.387 319.094L169.931 319.091C169.929 319.337 169.743 343.728 169.127 346.103L169.568 346.217Z" fill="#21111D"/>
<path d="M146.084 312.728C149.08 311.76 153.205 311.614 153.246 311.613L153.231 311.158C153.189 311.159 149.002 311.306 145.943 312.294L146.084 312.728Z" fill="#21111D"/>
<path d="M139.341 354.684C144.388 354.684 147.873 353.858 147.909 353.849L148.077 353.808L149.541 311.551L147.673 313.053L147.958 313.408L149.051 312.53L147.634 353.443C146.86 353.61 143.492 354.274 138.899 354.226L138.894 354.681C139.044 354.683 139.193 354.684 139.341 354.684Z" fill="#21111D"/>
<path d="M145.698 347.098C146.325 343.43 145.727 318.599 145.701 317.544L145.245 317.555C145.251 317.813 145.868 343.397 145.248 347.022L145.698 347.098Z" fill="#21111D"/>
<path d="M189.222 314.822C195.043 314.822 202.021 314.626 209.866 314.036L209.832 313.583C186.458 315.342 170.782 313.602 170.626 313.584L170.575 314.035C170.679 314.046 177.666 314.822 189.222 314.822Z" fill="#21111D"/>
<path d="M181.221 273.907C180.77 273.899 162.617 281.696 162.617 281.696L166.275 288.686L176.462 286.453L181.221 273.907Z" fill="#018752"/>
<path d="M207.522 241.418C207.522 241.418 215.241 241.148 218.926 243.233C224.425 246.344 222.466 264.161 222.466 264.161C222.466 264.161 217.793 261.616 217.51 260.768C217.226 259.919 207.522 241.418 207.522 241.418Z" fill="#018752"/>
<path d="M209.394 280.093C209.385 280.096 209.376 280.099 209.366 280.101L203.687 281.398C203.573 281.425 203.459 281.353 203.433 281.239C203.407 281.125 203.478 281.012 203.593 280.985L209.271 279.687C209.386 279.661 209.5 279.733 209.526 279.847C209.55 279.951 209.492 280.056 209.394 280.093Z" fill="#21111D"/>
<path d="M172.921 277.395C172.813 277.435 172.692 277.382 172.649 277.275C172.605 277.166 172.658 277.043 172.767 276.999L178.904 274.555C179.017 274.516 179.137 274.564 179.18 274.673C179.224 274.782 179.171 274.905 179.061 274.949L172.925 277.393C172.923 277.394 172.922 277.394 172.921 277.395Z" fill="#21111D"/>
<path d="M170.606 281.408C170.606 281.408 168.387 286.639 170.009 297.129L178.125 292.781L175.715 284.944L170.606 281.408Z" fill="#018752"/>
<path d="M209.501 300.284C209.002 300.472 208.533 300.619 208.1 300.734C205.5 301.423 203.683 301.137 203.607 301.124C203.492 301.105 203.413 300.996 203.432 300.881C203.451 300.765 203.56 300.687 203.676 300.706C203.694 300.708 205.496 300.989 208.013 300.318C210.334 299.699 213.76 298.119 216.893 294.107C220.825 289.07 222.262 273.563 222.297 261.814C222.297 261.697 222.393 261.602 222.51 261.603C222.627 261.603 222.722 261.698 222.722 261.815C222.687 273.631 221.227 289.246 217.228 294.367C214.597 297.737 211.756 299.433 209.501 300.284Z" fill="#21111D"/>
<path d="M156.885 264.867L156.473 264.775L147.853 266.311C147.853 266.311 148.325 266.42 148.35 266.42C148.375 266.42 156.885 264.867 156.885 264.867Z" fill="#105E5A"/>
<path d="M152.984 293.986L162.265 290.366L156.885 264.867L147.75 266.42L152.984 293.986Z" fill="#DCF4FF"/>
<path d="M157.195 266.73L157.351 266.697L156.953 264.801L156.475 264.693L156.459 264.696L147.894 266.209L147.922 266.366L156.471 264.856L156.818 264.934L157.195 266.73Z" fill="black"/>
<path d="M152.984 293.986H171.4L166.166 266.42H147.75L152.984 293.986Z" fill="#3F9896"/>
<path d="M156.898 291.495C156.876 290.897 157.393 290.374 157.991 290.334L161.692 290.087C161.808 290.079 161.907 289.998 161.937 289.886C161.982 289.72 161.863 289.555 161.692 289.544L156.213 289.182C155.586 289.14 155.206 288.61 155.369 288.003C155.532 287.396 156.179 286.934 156.807 286.976L162.394 287.345C162.523 287.354 162.641 287.27 162.675 287.144L162.698 287.055C162.737 286.91 162.651 286.761 162.506 286.722L156.516 285.115C155.937 284.96 155.532 284.347 155.67 283.764C155.816 283.146 156.444 282.776 157.053 282.939L163.088 284.558C163.233 284.597 163.383 284.511 163.422 284.366L163.497 284.085C163.533 283.953 163.465 283.815 163.339 283.762L157.983 281.547C157.429 281.318 157.107 280.657 157.32 280.097C157.545 279.504 158.215 279.218 158.798 279.459C158.798 279.459 167.036 282.371 168.38 282.725L165.902 281.569C164.079 283.276 166.138 280.945 167.638 280.644C169.3 280.309 173.69 284.369 173.69 284.369C173.892 284.719 173.685 285.499 173.368 286.087C172.143 292.584 171.9 293.574 171.409 295.296L164.641 293.234C162.688 292.638 160.643 292.403 158.606 292.539L158.094 292.574C157.465 292.615 156.922 292.129 156.898 291.495Z" fill="#FE9F73"/>
<path d="M168.8 280.294L169.261 283.036L165.329 281.725L165.363 279.999L168.8 280.294Z" fill="#3F9896"/>
<path d="M166.134 266.43L165.805 266.311H147.853L147.75 266.42L166.134 266.43Z" fill="#105E5A"/>
<path d="M166.244 266.395L166.087 266.425L169.121 282.651L169.277 282.622L166.244 266.395Z" fill="black"/>
<path d="M152.918 294.066L163.036 293.969L163.035 293.809L153.05 293.906L150.361 279.74L150.204 279.77L152.918 294.066Z" fill="black"/>
<path d="M151.496 268.045L150.439 269.536L150.569 269.628L151.626 268.137L151.496 268.045Z" fill="black"/>
<path d="M166.655 277.317L165.597 278.809L165.727 278.901L166.785 277.409L166.655 277.317Z" fill="black"/>
<path d="M165.439 277.923L164.381 279.415L164.511 279.507L165.569 278.015L165.439 277.923Z" fill="black"/>
<path d="M151.651 269.194L150.594 270.686L150.724 270.778L151.782 269.286L151.651 269.194Z" fill="black"/>
<path d="M214.994 242.809C210.607 242.202 199.031 241.783 199.031 241.783C199.031 241.783 197.497 242.185 197.986 241.959C185.203 244.213 183.79 253.68 183.79 253.68L177.55 281.033L170.606 281.408C168.359 285.66 170.009 297.129 170.009 297.129L203.642 300.915C203.642 300.915 210.912 302.111 217.061 294.237C221.128 289.028 222.512 273.034 222.51 261.347C222.51 261.347 221.811 243.752 214.994 242.809Z" fill="#018752"/>
<path d="M203.688 281.506C203.649 281.521 203.607 281.524 203.564 281.514C203.45 281.487 203.379 281.373 203.406 281.259C203.441 281.109 206.956 266.188 208.452 256.798C208.471 256.682 208.58 256.603 208.695 256.621C208.811 256.64 208.89 256.749 208.871 256.864C207.373 266.27 203.855 281.206 203.819 281.356C203.803 281.428 203.752 281.482 203.688 281.506Z" fill="#21111D"/>
<path d="M181.934 281.261C181.891 281.277 181.842 281.28 181.795 281.265C181.683 281.23 181.621 281.11 181.656 280.999C181.709 280.832 186.924 264.308 188.013 258.596C188.035 258.481 188.146 258.405 188.261 258.427C188.376 258.449 188.452 258.56 188.43 258.675C187.336 264.412 182.114 280.96 182.061 281.126C182.041 281.191 181.993 281.239 181.934 281.261Z" fill="#21111D"/>
<path d="M203.135 249.8C202.971 249.817 202.804 249.832 202.633 249.844C202.536 249.85 202.452 249.777 202.445 249.68C202.438 249.583 202.508 249.5 202.609 249.492C209.923 248.979 211.282 243.631 211.292 243.578C211.31 243.484 211.4 243.418 211.495 243.435C211.589 243.45 211.655 243.537 211.641 243.631C211.633 243.687 210.283 249.062 203.135 249.8Z" fill="#21111D"/>
<path d="M180.441 277.318C180.346 277.353 180.236 277.317 180.183 277.226L178.757 274.786L178.775 274.704L183.581 253.64C183.61 253.45 184.027 250.995 186.111 248.289C188.064 245.751 191.916 242.524 199.174 241.56C199.291 241.545 199.398 241.626 199.413 241.743C199.429 241.858 199.347 241.965 199.23 241.981C192.129 242.924 188.367 246.062 186.462 248.529C184.397 251.201 184.003 253.686 184 253.711L183.997 253.727L179.208 274.717L180.55 277.012C180.609 277.113 180.575 277.243 180.473 277.302C180.463 277.308 180.452 277.314 180.441 277.318Z" fill="#21111D"/>
<path d="M211.023 281.695C210.998 281.704 210.97 281.709 210.941 281.708C210.638 281.699 180.587 280.798 170.755 281.608C170.513 282.253 169.404 285.583 169.714 291.676C169.72 291.793 169.631 291.893 169.513 291.899C169.396 291.904 169.296 291.814 169.29 291.697C168.938 284.793 170.351 281.462 170.411 281.323L170.461 281.207L170.587 281.197C180.305 280.366 210.649 281.275 210.954 281.284C211.071 281.288 211.163 281.386 211.16 281.503C211.158 281.591 211.101 281.665 211.023 281.695Z" fill="#21111D"/>
<path d="M197.093 226.203V235.025C197.093 235.025 196.969 238.007 199.581 238.38L199.094 242.358C198.912 243.837 199.798 245.253 201.22 245.703C201.915 245.922 202.746 246.083 203.687 246.083C206.673 246.083 208.29 243.847 208.539 242.728C208.788 241.61 208.042 236.267 208.042 236.267L208.133 233.642L207.793 223.47L197.093 226.203Z" fill="#FE9F73"/>
<path d="M204.302 230.614C204.333 230.614 204.364 230.603 204.388 230.579C204.437 230.532 204.439 230.453 204.392 230.404C204.375 230.386 202.663 228.638 201.1 229.896C201.046 229.939 201.038 230.017 201.081 230.071C201.124 230.125 201.202 230.133 201.256 230.09C202.641 228.975 204.149 230.51 204.212 230.576C204.236 230.601 204.269 230.614 204.302 230.614Z" fill="#21111D"/>
<path d="M199.173 229.869C199.208 229.869 199.242 229.854 199.267 229.826C199.312 229.774 199.307 229.696 199.255 229.65C199.204 229.607 198.018 228.593 197.267 229.236C197.215 229.281 197.209 229.359 197.254 229.411C197.298 229.463 197.377 229.469 197.429 229.425C198.017 228.921 199.081 229.829 199.091 229.838C199.115 229.859 199.144 229.869 199.173 229.869Z" fill="#21111D"/>
<path d="M202.159 231.489C202.366 231.489 202.533 231.322 202.533 231.116C202.533 230.91 202.366 230.743 202.159 230.743C201.953 230.743 201.786 230.91 201.786 231.116C201.786 231.322 201.953 231.489 202.159 231.489Z" fill="black"/>
<path d="M198.192 231.116C198.398 231.116 198.565 230.949 198.565 230.743C198.565 230.538 198.398 230.371 198.192 230.371C197.986 230.371 197.819 230.538 197.819 230.743C197.819 230.949 197.986 231.116 198.192 231.116Z" fill="black"/>
<path d="M207.445 223.96L205.362 226.905C205.362 226.905 199.051 229.353 195.817 226.453C192.582 223.554 193.577 222.162 194.525 220.71C194.993 219.995 197.224 218.538 199.962 219.752C201.456 220.415 202.56 218.438 204.302 219.432C206.044 220.426 208.099 222.147 207.869 222.828C207.639 223.509 207.445 223.96 207.445 223.96Z" fill="#21111D"/>
<path d="M207.319 222.717C207.319 222.717 210.191 222.579 210.993 225.34C211.795 228.101 210.716 229.547 210.689 230.371C210.661 231.194 211.22 236.744 207.319 236.329L206.265 227.163L207.623 223.513L207.319 222.717Z" fill="#21111D"/>
<path d="M208.688 232.568C209.563 231.695 209.562 230.279 208.688 229.405C207.813 228.532 206.396 228.532 205.521 229.405C204.646 230.279 204.646 231.695 205.521 232.568C206.396 233.441 207.813 233.441 208.688 232.568Z" fill="#FE9F73"/>
<path d="M207.274 232.357C207.739 232.357 208.05 232.008 208.152 231.659C208.273 231.246 208.134 230.845 207.799 230.637C207.303 230.33 206.853 230.527 206.623 230.678C206.72 230.425 206.871 230.24 207.075 230.128C207.516 229.885 208.063 230.062 208.069 230.064C208.101 230.075 208.137 230.057 208.147 230.024C208.158 229.992 208.141 229.957 208.108 229.946C208.084 229.938 207.505 229.75 207.016 230.018C206.733 230.173 206.541 230.447 206.444 230.833L206.39 231.05L206.549 230.892C206.571 230.87 207.103 230.353 207.733 230.743C208.081 230.959 208.112 231.353 208.032 231.624C207.95 231.906 207.702 232.233 207.274 232.233C207.27 232.233 207.266 232.233 207.261 232.233C207.228 232.233 207.2 232.26 207.199 232.294C207.199 232.329 207.226 232.357 207.26 232.357C207.265 232.357 207.27 232.357 207.274 232.357Z" fill="#018752"/>
<path d="M205.638 235.846C205.638 235.846 205.463 240.838 199.221 241.314L199.581 238.38C199.581 238.38 203.629 239.192 205.638 235.846Z" fill="#018752"/>
<path d="M200.469 233.63C200.495 233.63 200.52 233.614 200.528 233.588C200.539 233.555 200.521 233.52 200.489 233.509L199.242 233.097L199.636 230.167C199.64 230.133 199.616 230.101 199.582 230.097C199.548 230.092 199.517 230.116 199.513 230.15L199.105 233.183L200.45 233.627C200.456 233.629 200.463 233.63 200.469 233.63Z" fill="#018752"/>
<path d="M201.435 234.841C201.397 234.833 198.972 234.776 198.972 234.776C198.972 234.776 199.276 235.778 200.177 235.801C201.079 235.825 201.435 234.841 201.435 234.841Z" fill="#FBFDFC"/>
<path d="M242.564 32.9731L182.291 84.0107L186.202 88.6173L246.476 37.5797L242.564 32.9731Z" fill="#018752"/>
<path d="M250.167 31.4517C252.932 34.7609 257.051 47.8019 253.738 50.5633C250.424 53.3248 240.932 44.761 238.167 41.4518C235.402 38.1425 235.846 33.2213 239.16 30.4599C242.473 27.6984 247.401 28.1424 250.167 31.4517Z" fill="#FECC86"/>
<path d="M252.095 51.2947C252.769 51.2947 253.373 51.1212 253.863 50.7129L253.613 50.4138C251.905 51.8373 248.454 49.9547 245.859 48.1249C242.883 46.0258 239.812 43.116 238.316 41.3269C235.625 38.1056 236.059 33.2977 239.285 30.6095L239.035 30.3103C235.644 33.1364 235.187 38.1901 238.017 41.5765C239.528 43.3851 242.63 46.3247 245.634 48.443C247.642 49.8594 250.156 51.2947 252.095 51.2947Z" fill="black"/>
<path d="M236.918 171.882H247.34C248.171 171.882 248.844 172.554 248.844 173.384V174.152H235.414V173.384C235.414 172.554 236.087 171.882 236.918 171.882Z" fill="#018752"/>
<path d="M274.765 68.8735C277.013 63.0952 274.145 56.5907 268.359 54.3453C262.573 52.0999 256.06 54.964 253.811 60.7423C251.563 66.5206 254.431 73.0251 260.217 75.2705C266.003 77.5158 272.516 74.6518 274.765 68.8735Z" fill="#FDFFDC"/>
<path d="M243.399 39.8087C229.573 51.3301 227.718 71.8626 239.255 85.6691L289.321 43.9464C277.784 30.1398 257.224 28.2873 243.399 39.8087Z" fill="#FDD118"/>
<path d="M187.83 88.2318L182.102 90.1681L211.523 176.973L217.251 175.037L187.83 88.2318Z" fill="#018752"/>
<path d="M248.305 173.61H202.213C196.127 173.61 191.193 178.537 191.193 184.615V185.791H260.502C260.502 179.063 255.041 173.61 248.305 173.61Z" fill="#FDD118"/>
<path d="M289.321 43.9464L239.255 85.6694L241.83 88.2256L291.47 46.1679L289.321 43.9464Z" fill="#018752"/>
<path d="M280.936 55.348L291.735 46.1987L291.627 46.0521C291.549 45.9469 283.714 35.5148 272.045 32.9803C259.907 30.344 252.604 34.0105 249.094 35.7723C245.02 37.818 238.823 43.1357 236.628 47.1907L236.971 47.376C239.133 43.3828 245.247 38.1403 249.269 36.1205C252.739 34.3784 259.958 30.7538 271.962 33.361C282.736 35.7014 290.213 44.8728 291.202 46.1391L280.684 55.0506L280.936 55.348Z" fill="black"/>
<path d="M289.2 43.8015L239.133 85.524L239.383 85.8231L289.45 44.1006L289.2 43.8015Z" fill="black"/>
<path d="M240.175 62.3149H239.785V66.7021H240.175V62.3149Z" fill="black"/>
<path d="M242.141 63.5848H241.751V68.4341H242.141V63.5848Z" fill="black"/>
<path d="M236.213 38.0956L185.641 80.9187L185.893 81.2159L236.466 38.3927L236.213 38.0956Z" fill="black"/>
<path d="M226.222 54.4751L206.121 71.4959L206.373 71.7931L226.474 54.7722L226.222 54.4751Z" fill="black"/>
<path d="M182.302 90.0937L181.932 90.2185L210.188 173.674L210.558 173.549L182.302 90.0937Z" fill="black"/>
<path d="M191.926 99.656L191.557 99.781L208.058 148.439L208.428 148.314L191.926 99.656Z" fill="black"/>
<path d="M254.739 175.664L255.024 175.398C254.935 175.302 252.739 173.052 244.379 173.415C236.114 173.775 202.802 173.418 202.467 173.415L202.462 173.804C202.798 173.808 236.12 174.165 244.397 173.804C252.533 173.448 254.718 175.641 254.739 175.664Z" fill="black"/>
<path d="M200.566 177.077L197.791 178.982L198.012 179.303L200.787 177.398L200.566 177.077Z" fill="black"/>
<path d="M200.108 179.278L197.795 180.722L198.002 181.052L200.314 179.609L200.108 179.278Z" fill="black"/>
<path d="M185.153 92.4414C188.317 92.2391 190.718 89.5133 190.515 86.3532C190.313 83.1931 187.583 80.7953 184.419 80.9977C181.254 81.2 178.853 83.9258 179.056 87.0859C179.259 90.246 181.988 92.6438 185.153 92.4414Z" fill="#FECC86"/>
<path d="M278.622 127.857C270.504 127.429 242.681 126.257 223.656 129.074C221.188 129.44 219.616 126.486 221.323 124.669C222.322 123.607 224.025 122.741 226.89 122.541C226.89 122.541 225.903 104.803 239.319 103.628C254.707 102.281 254.893 119.707 254.893 119.707C254.893 119.707 261.887 113.077 266.931 121.483C266.931 121.483 275.648 116.451 280.045 125.745C280.525 126.758 279.743 127.916 278.622 127.857Z" fill="#FDD118"/>
<path d="M332.306 103.797H290.533C289.419 103.797 288.517 102.896 288.517 101.784V77.604C288.517 76.492 289.419 75.5906 290.533 75.5906H332.306C333.42 75.5906 334.322 76.492 334.322 77.604V101.784C334.322 102.896 333.42 103.797 332.306 103.797Z" fill="#FC4F68"/>
<path d="M320.278 101.607C320.325 101.795 327.689 111.364 327.736 111.082C327.783 110.799 326.887 100.805 326.887 100.805L320.278 101.607Z" fill="#FC4F68"/>
<path d="M306.388 83.3985C309.845 80.9894 312.057 84.8138 312.546 85.7844C313.072 84.8333 315.429 81.0963 318.791 83.6358C323.307 87.0463 316.487 95.8599 312.303 98.526H312.3C308.222 95.7017 301.745 86.6338 306.388 83.3985Z" fill="white"/>
<path d="M203.442 212.007H160.071C158.957 212.007 158.054 211.106 158.054 209.994V184.83C158.054 183.718 158.957 182.816 160.071 182.816H203.442C204.556 182.816 205.458 183.718 205.458 184.83V209.994C205.458 211.106 204.556 212.007 203.442 212.007Z" fill="white"/>
<path d="M201.006 188.131H161.479C161.206 188.131 160.984 187.91 160.984 187.637C160.984 187.364 161.205 187.142 161.479 187.142H201.006C201.28 187.142 201.502 187.364 201.502 187.637C201.502 187.91 201.28 188.131 201.006 188.131Z" fill="#61A3C5"/>
<path d="M201.006 193.75H161.479C161.206 193.75 160.984 193.528 160.984 193.255C160.984 192.982 161.205 192.76 161.479 192.76H201.006C201.28 192.76 201.502 192.982 201.502 193.255C201.502 193.528 201.28 193.75 201.006 193.75Z" fill="#61A3C5"/>
<path d="M187.162 199.368H161.479C161.206 199.368 160.984 199.146 160.984 198.873C160.984 198.6 161.205 198.379 161.479 198.379H187.162C187.436 198.379 187.658 198.6 187.658 198.873C187.657 199.146 187.436 199.368 187.162 199.368Z" fill="#61A3C5"/>
<path d="M201.3 199.368H191.051C190.778 199.368 190.556 199.146 190.556 198.873C190.556 198.6 190.778 198.379 191.051 198.379H201.3C201.574 198.379 201.795 198.6 201.795 198.873C201.795 199.146 201.574 199.368 201.3 199.368Z" fill="#61A3C5"/>
<path d="M177.623 204.986H161.479C161.206 204.986 160.984 204.765 160.984 204.492C160.984 204.218 161.205 203.997 161.479 203.997H177.623C177.896 203.997 178.118 204.218 178.118 204.492C178.118 204.765 177.896 204.986 177.623 204.986Z" fill="#61A3C5"/>
<path d="M201.3 204.986H181.243C180.969 204.986 180.748 204.765 180.748 204.492C180.748 204.218 180.969 203.997 181.243 203.997H201.3C201.574 203.997 201.795 204.218 201.795 204.492C201.795 204.765 201.574 204.986 201.3 204.986Z" fill="#61A3C5"/>
<path d="M191.251 210.36C191.282 210.481 196.012 216.629 196.043 216.447C196.073 216.266 195.497 209.845 195.497 209.845L191.251 210.36Z" fill="white"/>
<path d="M588.11 384.211H53.6616V385.875H588.11V384.211Z" fill="#01483F"/>
<path d="M421.478 51.2163C465.667 64.5276 473.491 51.9392 470.344 36.1272C466.18 15.2012 446.186 1.34857 425.017 4.22363C396.482 8.09933 361.378 17.5758 396.738 39.9822C404.421 44.8511 412.766 48.5918 421.478 51.2163Z" fill="#FDD118"/>
</svg>
